<?xml version="1.0" encoding="UTF-8"?>
<svg version="1.1" xmlns="http://www.w3.org/2000/svg" width="416" height="416">
<path d="M0 0 C137.28 0 274.56 0 416 0 C416 137.28 416 274.56 416 416 C278.72 416 141.44 416 0 416 C0 278.72 0 141.44 0 0 Z " fill="#2DC5F6" transform="translate(0,0)"/>
<path d="M0 0 C2.31 1.98 4.62 3.96 7 6 C9.13279967 7.44112446 9.13279967 7.44112446 11.14463806 8.46322632 C12.25716021 9.06989466 12.25716021 9.06989466 13.39215755 9.68881893 C14.1804775 10.11683583 14.96879744 10.54485273 15.78100586 10.98583984 C28.28414256 18.07826399 39.76568869 26.34330544 50.9375 35.375 C51.96109241 36.20138599 52.98468483 37.02777199 54.0392952 37.87919998 C79.42519418 58.74160169 94.23751989 83.29155502 97.74713051 116.23272943 C100.82719161 148.865917 100.34784428 181.71055817 99.4375 214.4375 C99.40048939 215.8003684 99.36349878 217.16323735 99.32652807 218.52610683 C98.35067646 254.06265607 96.54926003 289.54158295 94 325 C57.9023766 327.65927058 21.78422402 329.4945418 -14.39646053 330.50532037 C-16.4317948 330.56234017 -18.46708206 330.62087699 -20.50237274 330.67942953 C-143.07208339 334.14971998 -143.07208339 334.14971998 -181.57070202 297.80994242 C-187.12095591 292.40472843 -192.12457841 286.57534404 -197 280.5625 C-197.43323877 280.03180357 -197.86647754 279.50110715 -198.31284475 278.95432901 C-227 243.69236394 -227 243.69236394 -227 235 C-212.15 235 -197.3 235 -182 235 C-182 170.65 -182 106.3 -182 40 C-181.67 40 -181.34 40 -181 40 C-180.85162689 40.66898819 -180.70325378 41.33797638 -180.55038452 42.02723694 C-176.87118015 58.61142951 -173.16917625 75.19037073 -169.44909668 91.76544189 C-165.37556397 109.91652682 -161.30847493 128.06893217 -157.28329468 146.23080444 C-154.88450041 157.05242444 -152.45635725 167.86722343 -150.0171814 178.67980957 C-147.11859314 191.53156545 -144.231006 204.38561005 -141.40383911 217.2532959 C-141.09534561 218.65684948 -140.7861726 220.0602539 -140.47628784 221.46350098 C-140.05364731 223.37883798 -139.63415617 225.29486914 -139.21484375 227.2109375 C-138.97886475 228.28649902 -138.74288574 229.36206055 -138.49975586 230.47021484 C-138 233 -138 233 -138 235 C-122.16 235 -106.32 235 -90 235 C-89.67 232.36 -89.34 229.72 -89 227 C-88.70230414 225.40052859 -88.3802246 223.80519104 -88.02244568 222.21807861 C-87.73481606 220.92914955 -87.73481606 220.92914955 -87.44137573 219.61418152 C-87.23312164 218.69897232 -87.02486755 217.78376312 -86.81030273 216.84082031 C-86.58892136 215.85384659 -86.36753998 214.86687286 -86.13945007 213.84999084 C-85.40772835 210.5918891 -84.67066137 207.33502114 -83.93359375 204.078125 C-83.41575767 201.7769126 -82.89827252 199.47562121 -82.38111877 197.17425537 C-81.01477989 191.0980654 -79.64398374 185.02288973 -78.27215576 178.94793701 C-76.90754362 172.90203166 -75.54656118 166.85530986 -74.18554688 160.80859375 C-73.65112171 158.43437504 -73.11668776 156.06015832 -72.58224487 153.6859436 C-72.18884729 151.93830153 -72.18884729 151.93830153 -71.78750229 150.15535355 C-70.9986005 146.65175776 -70.20910331 143.1482966 -69.41946411 139.64486694 C-66.08464838 124.84553821 -62.77138964 110.04162643 -59.49693298 95.2288208 C-57.1701206 84.71012204 -54.75816087 74.21219732 -52.3203125 63.71875 C-50.4906864 55.82499198 -48.73828268 47.91429878 -47 40 C-46.67 40 -46.34 40 -46 40 C-46 104.35 -46 168.7 -46 235 C-30.82 235 -15.64 235 0 235 C0 157.45 0 79.9 0 0 Z " fill="#27A9D4" transform="translate(322,91)"/>
<path d="M0 0 C23.76 0 47.52 0 72 0 C83.02779322 45.90318929 83.02779322 45.90318929 87.46603394 65.49468994 C89.50608689 74.49967209 91.57740261 83.49642861 93.69140625 92.484375 C94.04310883 93.97973785 94.04310883 93.97973785 94.4019165 95.50531006 C94.88139479 97.54330712 95.36092804 99.58129124 95.84051514 101.6192627 C99.29189401 116.28667466 102.70003733 130.95754736 105.875 145.6875 C107.76370689 154.44614926 109.70381803 163.18153658 111.875 171.875 C112.07851074 172.69057373 112.28202148 173.50614746 112.49169922 174.34643555 C113.46908703 178.2712441 113.46908703 178.2712441 115 182 C115.18473877 181.16082031 115.36947754 180.32164062 115.55981445 179.45703125 C120.13294323 158.71328578 124.8131815 137.99570197 129.57055664 117.29345703 C130.04574738 115.22558863 130.52092624 113.15771749 130.99609375 111.08984375 C131.23608597 110.04552185 131.47607819 109.00119995 131.7233429 107.92523193 C134.46567582 95.98462321 137.18337114 84.03841163 139.90328979 72.09268188 C147.56639445 38.44600419 147.56639445 38.44600419 151.125 23.125 C151.3837793 22.00528809 151.64255859 20.88557617 151.90917969 19.73193359 C152.14797852 18.70922363 152.38677734 17.68651367 152.6328125 16.6328125 C152.82762207 15.79637207 153.02243164 14.95993164 153.22314453 14.09814453 C154.40642795 9.37914182 155.71990891 4.69366734 157 0 C180.43 0 203.86 0 228 0 C228 77.88 228 155.76 228 236 C212.82 236 197.64 236 182 236 C181.67 172.97 181.34 109.94 181 45 C174.66180078 73.43383786 174.66180078 73.43383786 168.5065918 101.90625 C166.15161552 112.98972611 163.60532855 124.0234405 161.01730347 135.0546875 C158.27697529 146.75204862 155.60321707 158.46423547 152.94140625 170.1796875 C152.72268797 171.14227856 152.50396969 172.10486961 152.27862358 173.0966301 C150.93409965 179.01532023 149.59091681 184.93431412 148.24810791 190.85339355 C146.88297184 196.86981183 145.51647214 202.88592054 144.15021515 208.90208435 C142.09912897 217.93449302 140.04971766 226.96728019 138 236 C122.16 236 106.32 236 90 236 C85.40275221 217.61100885 85.40275221 217.61100885 83.8515625 210.63671875 C83.67386322 209.84534012 83.49616394 209.05396149 83.31307983 208.23860168 C82.74849798 205.72198646 82.18668735 203.20476266 81.625 200.6875 C81.2254117 198.90361194 80.82567002 197.11975823 80.42578125 195.3359375 C78.03583007 184.66768111 75.66093077 173.99607314 73.29589844 163.32226562 C71.89312346 156.99750631 70.47918373 150.67536436 69.0546875 144.35546875 C68.79351639 143.19674759 68.79351639 143.19674759 68.52706909 142.01461792 C67.79059832 138.74777952 67.05399227 135.4809717 66.31707764 132.2142334 C63.80999325 121.09670606 61.32481641 109.974496 58.859375 98.84765625 C58.59130035 97.6383696 58.32322571 96.42908295 58.04702759 95.18315125 C56.72041537 89.19769407 55.395692 83.21182782 54.07373047 77.2253418 C53.58306551 75.00959009 53.09234536 72.7938506 52.6015625 70.578125 C52.273909 69.08968834 52.273909 69.08968834 51.93963623 67.57118225 C50.41022834 60.67649167 48.71441946 53.85767784 47 47 C46.67 109.37 46.34 171.74 46 236 C30.82 236 15.64 236 0 236 C0 158.12 0 80.24 0 0 Z " fill="#FDFEFE" transform="translate(94,90)"/>
<path d="M0 0 C4.66014923 3.91749969 9.14799465 7.96002276 13.51782227 12.19799805 C14.12677841 12.78592636 14.73573456 13.37385468 15.36314392 13.979599 C20.91372897 19.34880498 26.42773698 24.75549905 31.92993259 30.17424297 C35.61763525 33.80511593 39.31693489 37.42222592 43.04614258 41.01049805 C46.66859211 44.49666291 50.25819207 48.01370604 53.82703972 51.55469704 C55.18786183 52.89406768 56.5599207 54.22212256 57.94326973 55.53821373 C68.66838965 65.76470104 68.66838965 65.76470104 69.44117737 70.97386169 C68.94754438 73.86411882 68.1023715 76.2878121 67 79 C66.59512485 80.70898928 66.219615 82.42521116 65.87426758 84.1472168 C65.46685154 85.91512786 65.0568431 87.68244307 64.64453125 89.44921875 C64.4220723 90.41274765 64.19961334 91.37627655 63.97041321 92.3690033 C63.4971731 94.41845611 63.02290362 96.46767148 62.54766846 98.5166626 C61.30035765 103.89640887 60.06173655 109.27814997 58.82421875 114.66015625 C58.57929688 115.72518372 58.334375 116.79021118 58.08203125 117.88751221 C56.03964192 126.78789421 54.06139739 135.70103187 52.125 144.625 C51.85059082 145.88546143 51.57618164 147.14592285 51.29345703 148.44458008 C50.27917153 153.10638035 49.26618139 157.76845109 48.25830078 162.43164062 C47.57519093 165.58104917 46.88268458 168.72823842 46.1875 171.875 C45.99236816 172.78588379 45.79723633 173.69676758 45.59619141 174.63525391 C45.41362793 175.45429199 45.23106445 176.27333008 45.04296875 177.1171875 C44.88852295 177.82472168 44.73407715 178.53225586 44.57495117 179.26123047 C44 181 44 181 42 183 C38.48157704 169.45326092 35.25372346 155.85606425 32.25 142.1875 C29.29517629 128.74998452 26.25186078 115.33606058 23.125 101.9375 C22.9162323 101.04259857 22.7074646 100.14769714 22.49237061 99.22567749 C21.42641803 94.65782855 20.35912332 90.09029467 19.29101562 85.52294922 C14.12881034 63.44587888 8.98418527 41.36438087 3.91021729 19.2668457 C3.55624705 17.72631426 3.20156307 16.18594663 2.84613037 14.64575195 C2.36142626 12.54426679 1.87951321 10.44216205 1.3984375 8.33984375 C1.12692871 7.15769287 0.85541992 5.97554199 0.57568359 4.75756836 C0 2 0 2 0 0 Z " fill="#249CC3" transform="translate(166,91)"/>
<path d="M0 0 C0.33 0 0.66 0 1 0 C1.02514961 3.89199822 1.04306705 7.7839635 1.05493164 11.67602539 C1.06229736 13.63364327 1.07501826 15.59123871 1.08789062 17.54882812 C1.13328224 35.38773144 1.13328224 35.38773144 0 42 C-0.99 42.495 -0.99 42.495 -2 43 C-2.57974438 45.18337007 -2.57974438 45.18337007 -2.9375 47.75 C-3.86954203 52.82204266 -5.01229728 56.36023779 -9.09765625 59.73046875 C-11.65711558 62.78395103 -11.32055436 64.52141196 -11.0625 68.4375 C-10.74773769 73.37640679 -11.08049701 75.94302831 -14 80 C-13.01 79.67 -12.02 79.34 -11 79 C-10.80560381 83.85990469 -11.26377879 87.46653351 -13 92 C-13.350625 93.0725 -13.70125 94.145 -14.0625 95.25 C-15 98 -15 98 -16 100 C-16.144375 101.0725 -16.28875 102.145 -16.4375 103.25 C-16.95839367 106.72262446 -17.89463819 109.68391456 -19 113 C-19 114.32 -19 115.64 -19 117 C-19.51574298 123.08576716 -20.94444084 128.26964404 -23 134 C-23.54552499 135.6237088 -24.0872887 137.24868689 -24.625 138.875 C-25.41666667 141.25 -26.20833333 143.625 -27 146 C-26.34 146.33 -25.68 146.66 -25 147 C-25.33 147.33 -25.66 147.66 -26 148 C-26.23075082 149.34747084 -26.41153063 150.70377565 -26.5625 152.0625 C-26.706875 153.361875 -26.85125 154.66125 -27 156 C-27.66 156 -28.32 156 -29 156 C-28.95875 157.0725 -28.9175 158.145 -28.875 159.25 C-29 163 -29 163 -29.9453125 164.88671875 C-31.61341734 168.2291066 -31.88049507 171.77611488 -32.4375 175.44140625 C-33 178 -33 178 -35 181 C-35.36628677 182.99422795 -35.70131344 184.99453311 -36 187 C-36.33 187.66 -36.66 188.32 -37 189 C-36.34 189 -35.68 189 -35 189 C-35.46896552 196.03448276 -35.46896552 196.03448276 -37.375 199.5 C-41.6550226 201.9457272 -46.18609489 201.43183561 -51 201 C-51.57355225 200.83137451 -52.14710449 200.66274902 -52.73803711 200.48901367 C-55.80771129 199.82538093 -58.70823652 199.90756711 -61.84765625 199.9375 C-62.50076279 199.94128662 -63.15386932 199.94507324 -63.82676697 199.94897461 C-65.905413 199.96114996 -67.9839176 199.97977986 -70.0625 200 C-72.80338175 200.02659513 -75.544194 200.04658497 -78.28515625 200.0625 C-79.50082275 200.07410156 -80.71648926 200.08570313 -81.96899414 200.09765625 C-85 200 -85 200 -88 199 C-88 198.34 -88 197.68 -88 197 C-88.99 196.67 -89.98 196.34 -91 196 C-91 195.67 -91 195.34 -91 195 C-75.16 195 -59.32 195 -43 195 C-42.505 191.04 -42.505 191.04 -42 187 C-41.70230414 185.40052859 -41.3802246 183.80519104 -41.02244568 182.21807861 C-40.8306926 181.35879257 -40.63893951 180.49950653 -40.44137573 179.61418152 C-40.23312164 178.69897232 -40.02486755 177.78376312 -39.81030273 176.84082031 C-39.58892136 175.85384659 -39.36753998 174.86687286 -39.13945007 173.84999084 C-38.40772835 170.5918891 -37.67066137 167.33502114 -36.93359375 164.078125 C-36.41575767 161.7769126 -35.89827252 159.47562121 -35.38111877 157.17425537 C-34.01477989 151.0980654 -32.64398374 145.02288973 -31.27215576 138.94793701 C-29.90754362 132.90203166 -28.54656118 126.85530986 -27.18554688 120.80859375 C-26.65112171 118.43437504 -26.11668776 116.06015832 -25.58224487 113.6859436 C-25.18884729 111.93830153 -25.18884729 111.93830153 -24.78750229 110.15535355 C-23.9986005 106.65175776 -23.20910331 103.1482966 -22.41946411 99.64486694 C-19.08464838 84.84553821 -15.77138964 70.04162643 -12.49693298 55.2288208 C-10.1701206 44.71012204 -7.75816087 34.21219732 -5.3203125 23.71875 C-3.4906864 15.82499198 -1.73828268 7.91429878 0 0 Z M-37 181 C-36 183 -36 183 -36 183 Z " fill="#248DAF" transform="translate(275,131)"/>
<path d="M0 0 C6 5 6 5 6.7438736 7.16707611 C6.73947392 8.2621133 6.73947392 8.2621133 6.73498535 9.37927246 C6.74612869 10.22758259 6.75727203 11.07589272 6.76875305 11.94990921 C6.75031845 12.87071651 6.73188385 13.79152382 6.71289062 14.74023438 C6.71693405 15.7248402 6.72097748 16.70944603 6.72514343 17.7238884 C6.73108326 21.01456994 6.69382809 24.30329901 6.65625 27.59375 C6.65078613 29.93470834 6.64778872 32.27567357 6.64709473 34.61663818 C6.63704024 40.93274339 6.58843322 47.2480202 6.53179932 53.56385803 C6.48941207 58.81058172 6.46932875 64.05729313 6.44921875 69.304142 C6.29758961 107.7758523 5.69779499 146.24178348 4.71289062 184.70117188 C4.6780444 186.0622406 4.6780444 186.0622406 4.6424942 187.45080566 C4.55277405 190.94181041 4.46292676 194.43280878 4.37025452 197.92373657 C4.07458345 209.10519033 3.89814163 220.2707795 4.03686523 231.45709229 C4.05813984 233.63799238 4.03481329 235.81927401 4 238 C2.44866434 239.55133566 0.96216141 239.15003625 -1.19677734 239.17700195 C-2.08795258 239.18983719 -2.97912781 239.20267242 -3.89730835 239.21589661 C-4.86705597 239.22328354 -5.83680359 239.23067047 -6.8359375 239.23828125 C-8.32137558 239.25038887 -8.32137558 239.25038887 -9.83682251 239.26274109 C-11.93677001 239.27659909 -14.0367402 239.28731353 -16.13671875 239.29516602 C-19.3545987 239.3123908 -22.57145477 239.35626315 -25.7890625 239.40039062 C-27.82551325 239.41051589 -29.86197276 239.41903251 -31.8984375 239.42578125 C-32.86413666 239.44328934 -33.82983582 239.46079742 -34.82479858 239.47883606 C-35.72227814 239.47591049 -36.61975769 239.47298492 -37.54443359 239.4699707 C-38.33417572 239.47583694 -39.12391785 239.48170319 -39.93759155 239.48774719 C-42 239 -42 239 -45 235 C-30.15 235 -15.3 235 0 235 C0 157.45 0 79.9 0 0 Z " fill="#1283A7" transform="translate(322,91)"/>
<path d="M0 0 C0.33 0 0.66 0 1 0 C4.62597814 13.32761583 5.51130384 25.668513 5.25 39.4375 C5.22986179 41.30531893 5.21162423 43.17315935 5.1953125 45.04101562 C5.16301044 48.42142647 5.12070667 51.80131573 5.06347656 55.18139648 C5.02569831 57.45404884 5 59.72703368 5 62 C4.835 63.051875 4.67 64.10375 4.5 65.1875 C3.96988612 69.22961833 3.85965019 72.92985549 4 77 C4.33 77.33 4.66 77.66 5 78 C5.07462084 81.53049871 4.99603858 85.05142302 4.9375 88.58203125 C4.93270419 91.79300832 5.16754214 94.91912248 5.48828125 98.11328125 C6.26554285 106.85093975 6.18602273 115.60922988 6.18530273 124.37451172 C6.18751035 127.38913672 6.20578365 130.40340717 6.22460938 133.41796875 C6.22754036 135.3489571 6.22952713 137.27994716 6.23046875 139.2109375 C6.23765427 140.10477142 6.24483978 140.99860535 6.25224304 141.91952515 C6.23464955 146.73288647 5.70672032 150.44316556 4 155 C3.74695904 157.20697572 3.74695904 157.20697572 3.83984375 159.3203125 C3.85144531 160.09785889 3.86304688 160.87540527 3.875 161.67651367 C3.895625 162.48451416 3.91625 163.29251465 3.9375 164.125 C4.03973417 171.47805093 3.81795326 178.68223959 3 186 C3.66 186 4.32 186 5 186 C5 181.71 5 177.42 5 173 C5.33 173 5.66 173 6 173 C6.02886537 177.31248609 6.04675255 181.62494762 6.0625 185.9375 C6.07087891 187.16919922 6.07925781 188.40089844 6.08789062 189.66992188 C6.09111328 190.83974609 6.09433594 192.00957031 6.09765625 193.21484375 C6.10289307 194.29886475 6.10812988 195.38288574 6.11352539 196.49975586 C6 199 6 199 5 200 C3.33582003 200.14633469 1.66582879 200.22745681 -0.00390625 200.28125 C-1.04788574 200.31806885 -2.09186523 200.3548877 -3.16748047 200.39282227 C-4.28783691 200.42819092 -5.40819336 200.46355957 -6.5625 200.5 C-15.41605013 200.81227785 -24.24776486 201.21168917 -33.0859375 201.81640625 C-35.05433858 201.9404208 -37.02769616 202 -39 202 C-40.98 199.69 -42.96 197.38 -45 195 C-30.15 195 -15.3 195 0 195 C0 130.65 0 66.3 0 0 Z " fill="#137B9E" transform="translate(140,131)"/>
<path d="M0 0 C0.66 0.33 1.32 0.66 2 1 C2.06196852 18.3958003 2.10224968 35.79160391 2.125 53.1875 C2.12671204 54.48918625 2.12842407 55.7908725 2.13018799 57.13200378 C2.17796085 98.33593932 1.76279154 139.50763055 0.71142578 180.69995117 C0.68828749 181.60740743 0.66514919 182.51486368 0.64130974 183.44981861 C0.46034388 190.52875557 0.46034388 190.52875557 0.37035751 193.9238224 C0.0746342 205.10525386 -0.10185813 216.27079834 0.03686523 227.45709229 C0.05813984 229.63799238 0.03481329 231.81927401 0 234 C-1.55133566 235.55133566 -3.03783859 235.15003625 -5.19677734 235.17700195 C-6.08795258 235.18983719 -6.97912781 235.20267242 -7.89730835 235.21589661 C-8.86705597 235.22328354 -9.83680359 235.23067047 -10.8359375 235.23828125 C-12.32137558 235.25038887 -12.32137558 235.25038887 -13.83682251 235.26274109 C-15.93677001 235.27659909 -18.0367402 235.28731353 -20.13671875 235.29516602 C-23.3545987 235.3123908 -26.57145477 235.35626315 -29.7890625 235.40039062 C-31.82551325 235.41051589 -33.86197276 235.41903251 -35.8984375 235.42578125 C-36.86413666 235.44328934 -37.82983582 235.46079742 -38.82479858 235.47883606 C-39.72227814 235.47591049 -40.61975769 235.47298492 -41.54443359 235.4699707 C-42.33417572 235.47583694 -43.12391785 235.48170319 -43.93759155 235.48774719 C-46 235 -46 235 -49 231 C-33.82 231 -18.64 231 -3 231 C-3 224.73 -3 218.46 -3 212 C-2.86463007 208.32567335 -2.71007895 204.66857465 -2.5 201 C-2.00652343 191.30218508 -1.9244877 181.63495534 -2.03710938 171.92578125 C-2.08425883 166.04298033 -1.91186523 160.23711581 -1.5078125 154.3671875 C-0.70259307 142.25853674 -0.84997606 130.12944475 -0.875 118 C-0.87588623 116.76144257 -0.87677246 115.52288513 -0.87768555 114.24679565 C-0.88991074 99.67824315 -0.98495956 85.12256514 -1.5 70.5625 C-1.54535889 69.27230957 -1.59071777 67.98211914 -1.63745117 66.65283203 C-1.6810376 65.42032715 -1.72462402 64.18782227 -1.76953125 62.91796875 C-2.50695752 41.82407966 -1.57623892 21.02560188 0 0 Z " fill="#2396BC" transform="translate(326,95)"/>
<path d="M0 0 C2.69475818 2.69475818 3.45032219 5.75830395 4.5625 9.3125 C4.7886499 10.03163574 5.0147998 10.75077148 5.24780273 11.49169922 C6.87537785 16.94833035 7.45486394 22.07655809 7.6953125 27.76953125 C8.257006 33.7249226 10.24219895 39.30807281 12 45 C12.4096983 46.60068174 12.80842227 48.20429143 13.1875 49.8125 C13.67055696 52.84073654 13.67055696 52.84073654 15 54 C15.35611826 55.5950507 15.65873744 57.20212787 15.9375 58.8125 C16.11152344 59.80507812 16.28554687 60.79765625 16.46484375 61.8203125 C16.99001188 64.94065453 17.49527934 68.06379574 18 71.1875 C18.54855843 74.57027702 19.18391802 77.83121307 20.125 81.125 C21.18718297 85.82895314 21.17693148 90.20319106 21 95 C21.66 95 22.32 95 23 95 C23.22786458 97.05078125 23.45572917 99.1015625 23.68359375 101.15234375 C23.81886614 103.01140229 23.81886614 103.01140229 25 104 C24.71269945 106.33944736 24.38063221 108.6739143 24 111 C22.28067945 107.88053628 21.38444865 104.92195136 20.58203125 101.45703125 C20.30415771 100.26899902 20.02628418 99.0809668 19.73999023 97.85693359 C19.43044958 96.50887563 19.12130195 95.16072737 18.8125 93.8125 C18.48212976 92.38095805 18.15146995 90.94948291 17.82055664 89.51806641 C17.24988701 87.04892813 16.6798407 84.57965514 16.11174011 82.10992432 C14.64663431 75.75320577 13.15118675 69.40397221 11.64259434 63.05745983 C10.25531632 57.22014791 8.87806613 51.38052018 7.50657558 45.53947926 C6.63769776 41.84097862 5.76413551 38.14371874 4.87979126 34.44888306 C4.03224506 30.90655372 3.19803857 27.36132551 2.37313461 23.81365776 C1.91440967 21.8561755 1.44201959 19.90191144 0.9692688 17.94776917 C-0.50405698 11.55708564 -1.40015211 6.4464187 0 0 Z " fill="#2089AB" transform="translate(185,163)"/>
<path d="M0 0 C0.33 0 0.66 0 1 0 C1.09776087 10.38437692 1.1555538 20.66192051 0 31 C0.66 31 1.32 31 2 31 C2 26.71 2 22.42 2 18 C2.33 18 2.66 18 3 18 C3.02886537 22.31248609 3.04675255 26.62494762 3.0625 30.9375 C3.07087891 32.16919922 3.07925781 33.40089844 3.08789062 34.66992188 C3.09111328 35.83974609 3.09433594 37.00957031 3.09765625 38.21484375 C3.10289307 39.29886475 3.10812988 40.38288574 3.11352539 41.49975586 C3 44 3 44 2 45 C0.33582003 45.14633469 -1.33417121 45.22745681 -3.00390625 45.28125 C-4.04788574 45.31806885 -5.09186523 45.3548877 -6.16748047 45.39282227 C-7.28783691 45.42819092 -8.40819336 45.46355957 -9.5625 45.5 C-18.41605013 45.81227785 -27.24776486 46.21168917 -36.0859375 46.81640625 C-38.05433858 46.9404208 -40.02769616 47 -42 47 C-43.9249647 45.17806158 -45.37535531 43.10764717 -47 41 C-40.77035385 40.97470049 -34.54072088 40.95715451 -28.31103516 40.94506836 C-26.19058741 40.94003128 -24.07014315 40.93320141 -21.94970703 40.92456055 C-18.90656678 40.91246766 -15.86347234 40.90676553 -12.8203125 40.90234375 C-11.86818878 40.89718246 -10.91606506 40.89202118 -9.93508911 40.88670349 C-9.05432709 40.88662796 -8.17356506 40.88655243 -7.26611328 40.88647461 C-6.48889923 40.884254 -5.71168518 40.88203339 -4.91091919 40.87974548 C-3 41 -3 41 -1 42 C-1.00523682 41.08299316 -1.01047363 40.16598633 -1.01586914 39.22119141 C-1.03305437 35.77326816 -1.04551924 32.32539137 -1.05493164 28.87744141 C-1.05991708 27.39371008 -1.06670785 25.90998354 -1.07543945 24.42626953 C-1.12246397 16.22187384 -1.0216355 8.15699528 0 0 Z " fill="#2190B4" transform="translate(143,286)"/>
<path d="M0 0 C4.61416051 2.54574373 5.4909981 6.26571382 7 11 C7.31453125 11.845625 7.6290625 12.69125 7.953125 13.5625 C9.41714789 18.36973935 10.25196211 23.24351877 11.125 28.1875 C11.30675781 29.18458984 11.48851562 30.18167969 11.67578125 31.20898438 C13 38.59175282 13 38.59175282 13 42 C13.66 42 14.32 42 15 42 C15.30744141 43.66289062 15.30744141 43.66289062 15.62109375 45.359375 C15.89316462 46.82292867 16.16530362 48.28646967 16.4375 49.75 C16.57220703 50.47960937 16.70691406 51.20921875 16.84570312 51.9609375 C17.60204252 56.05079205 17.60204252 56.05079205 18.53662109 60.10229492 C19.07306891 62.29924374 19.16838085 64.30261626 19.1875 66.5625 C19.20167969 67.32691406 19.21585938 68.09132813 19.23046875 68.87890625 C19 71 19 71 17 74 C12.35648037 55.13245882 7.77346837 36.25340191 3.4375 17.3125 C3.26210693 16.54948578 3.08671387 15.78647156 2.90600586 15.00033569 C2.4126023 12.85106723 1.92242378 10.70109397 1.43359375 8.55078125 C1.15572021 7.33044189 0.87784668 6.11010254 0.59155273 4.8527832 C0 2 0 2 0 0 Z " fill="#2088AA" transform="translate(166,91)"/>
<path d="M0 0 C2 2 2 2 2.24291992 4.13891602 C2.23881104 5.00186279 2.23470215 5.86480957 2.23046875 6.75390625 C2.22853516 7.69041016 2.22660156 8.62691406 2.22460938 9.59179688 C2.20624023 11.06229492 2.20624023 11.06229492 2.1875 12.5625 C2.18685547 13.54669922 2.18621094 14.53089844 2.18554688 15.54492188 C2.14017532 22.85982468 2.14017532 22.85982468 1 24 C-0.39555587 24.1135704 -1.79671712 24.15951484 -3.19677734 24.17700195 C-4.53354019 24.19625481 -4.53354019 24.19625481 -5.89730835 24.21589661 C-6.86705597 24.22328354 -7.83680359 24.23067047 -8.8359375 24.23828125 C-10.32137558 24.25038887 -10.32137558 24.25038887 -11.83682251 24.26274109 C-13.93677001 24.27659909 -16.0367402 24.28731353 -18.13671875 24.29516602 C-21.3545987 24.3123908 -24.57145477 24.35626315 -27.7890625 24.40039062 C-29.82551325 24.41051589 -31.86197276 24.41903251 -33.8984375 24.42578125 C-34.86413666 24.44328934 -35.82983582 24.46079742 -36.82479858 24.47883606 C-37.72227814 24.47591049 -38.61975769 24.47298492 -39.54443359 24.4699707 C-40.72904678 24.47877007 -40.72904678 24.47877007 -41.93759155 24.48774719 C-44 24 -44 24 -47 20 C-31.82 20 -16.64 20 -1 20 C-1 13.73 -1 7.46 -1 1 C-0.67 0.67 -0.34 0.34 0 0 Z " fill="#1D91B6" transform="translate(324,306)"/>
<path d="M0 0 C0.33 0 0.66 0 1 0 C1.04633607 11.77855607 1.08187573 23.55709046 1.10362434 35.33571911 C1.11406246 40.80498155 1.12822229 46.27418164 1.15087891 51.7434082 C1.17260612 57.02129543 1.18456842 62.29912267 1.18975449 67.57705116 C1.19345045 69.59088396 1.20066767 71.60471347 1.21146011 73.61852074 C1.2259733 76.4387052 1.227978 79.25864164 1.22705078 82.07885742 C1.23424133 82.91179825 1.24143188 83.74473907 1.24884033 84.60292053 C1.23368815 88.8606839 0.97159346 92.11519246 -1 96 C-15.67789752 96.71451184 -30.3045475 97.14630428 -45 97 C-45.33 96.34 -45.66 95.68 -46 95 C-41.82325338 94.85473529 -37.64641726 94.71247615 -33.46948242 94.57275391 C-32.05474221 94.52503545 -30.64002732 94.47655903 -29.2253418 94.42724609 C-20.14794868 94.11145464 -11.08422835 93.92966293 -2 94 C-2.00343666 93.13430893 -2.00343666 93.13430893 -2.00694275 92.25112915 C-2.06019177 76.50771533 -1.91205614 60.77352586 -1.62768555 45.03271484 C-1.56193835 41.34348456 -1.50253494 37.65418463 -1.44335938 33.96484375 C-1.05269679 11.11079483 -1.05269679 11.11079483 0 0 Z " fill="#25A1C9" transform="translate(327,235)"/>
<path d="M0 0 C1.485 0.99 1.485 0.99 3 2 C3.85222195 8.15831813 3.02405253 14.76828827 2.62231445 20.95927429 C1.68096472 36.11219339 1.937863 51.2787026 2.02050781 66.45288086 C2.10241867 82.9999528 1.87288804 99.47389041 1 116 C0.67 116 0.34 116 0 116 C0 77.72 0 39.44 0 0 Z " fill="#1F89AC" transform="translate(323,92)"/>
<path d="M0 0 C0.66 0.33 1.32 0.66 2 1 C1.98839844 1.94359375 1.97679687 2.8871875 1.96484375 3.859375 C1.95582031 5.14328125 1.94679687 6.4271875 1.9375 7.75 C1.92589844 9.00296875 1.91429687 10.2559375 1.90234375 11.546875 C1.92651547 14.76391092 2.16903635 17.90884384 2.48828125 21.109375 C3.26334081 29.88462561 3.22295084 38.68129332 3.24023438 47.484375 C3.25006833 50.52109902 3.28123545 53.55718038 3.3125 56.59375 C3.31901992 58.53124603 3.32427434 60.46874683 3.328125 62.40625 C3.3466452 63.76248474 3.3466452 63.76248474 3.36553955 65.14611816 C3.34319876 71.41323371 3.34319876 71.41323371 1.47949219 74.59960938 C0.99125977 75.06173828 0.50302734 75.52386719 0 76 C-0.85196688 50.61293249 -1.06656712 25.38236275 0 0 Z " fill="#2191B6" transform="translate(143,208)"/>
<path d="M0 0 C0.99 0 1.98 0 3 0 C2.125 5.75 2.125 5.75 1 8 C1.66 8 2.32 8 3 8 C2.53103448 15.03448276 2.53103448 15.03448276 0.625 18.5 C-3.6550226 20.9457272 -8.18609489 20.43183561 -13 20 C-13.57355225 19.83064941 -14.14710449 19.66129883 -14.73803711 19.48681641 C-17.81089126 18.82548115 -20.7059115 18.92626751 -23.84765625 18.97265625 C-25.18814852 18.98529607 -26.52864344 18.9976575 -27.86914062 19.00976562 C-29.97152044 19.03462692 -32.07376118 19.06267821 -34.17602539 19.09594727 C-36.2124114 19.12613532 -38.24861804 19.14391275 -40.28515625 19.16015625 C-41.50082275 19.17699463 -42.71648926 19.19383301 -43.96899414 19.21118164 C-47 19 -47 19 -50 17 C-47.19462697 16.06487566 -45.51834636 15.87817093 -42.62036133 15.88647461 C-41.29933159 15.88658791 -41.29933159 15.88658791 -39.95161438 15.88670349 C-39.00465195 15.89186478 -38.05768951 15.89702606 -37.08203125 15.90234375 C-36.10965012 15.9037587 -35.13726898 15.90517365 -34.13542175 15.90663147 C-31.02774996 15.91223183 -27.92015004 15.92478438 -24.8125 15.9375 C-22.70638125 15.94251495 -20.60026137 15.94707787 -18.49414062 15.95117188 C-13.32939936 15.96220138 -8.16471187 15.97946625 -3 16 C-1.515 8.08 -1.515 8.08 0 0 Z " fill="#2397BE" transform="translate(237,312)"/>
<path d="M0 0 C0.33 0 0.66 0 1 0 C1.84191873 3.72728171 2.6720168 7.45710003 3.5 11.1875 C3.73847656 12.24259766 3.97695312 13.29769531 4.22265625 14.38476562 C4.44824219 15.40634766 4.67382812 16.42792969 4.90625 17.48046875 C5.11572266 18.41785889 5.32519531 19.35524902 5.54101562 20.32104492 C5.98967088 22.93971199 6.08407959 25.34939083 6 28 C5.34 28 4.68 28 4 28 C4 28.99 4 29.98 4 31 C3.01 31 2.02 31 1 31 C0.505 32.485 0.505 32.485 0 34 C-1.48125044 31.03749913 -1.12990684 28.36087105 -1.1328125 25.05859375 C-1.13376923 24.37571793 -1.13472595 23.6928421 -1.13571167 22.98927307 C-1.13639223 21.54598905 -1.1345466 20.10270197 -1.13037109 18.65942383 C-1.12501282 16.44280172 -1.13032443 14.22638148 -1.13671875 12.00976562 C-1.13605811 10.60937455 -1.13477723 9.2089836 -1.1328125 7.80859375 C-1.13168457 6.52782959 -1.13055664 5.24706543 -1.12939453 3.92749023 C-1 1 -1 1 0 0 Z " fill="#2194BA" transform="translate(145,153)"/>
<path d="M0 0 C0.495 1.485 0.495 1.485 1 3 C-1.32850367 4.16425183 -2.71654379 4.13859876 -5.31030273 4.16113281 C-6.20140244 4.17074036 -7.09250214 4.1803479 -8.01060486 4.19024658 C-9.45748436 4.1966214 -9.45748436 4.1966214 -10.93359375 4.203125 C-12.41690941 4.21167511 -12.41690941 4.21167511 -13.93019104 4.22039795 C-16.02416918 4.22985377 -18.11816225 4.23638423 -20.2121582 4.24023438 C-23.42099828 4.24995004 -26.6292007 4.28097223 -29.83789062 4.3125 C-31.86978785 4.31902889 -33.90168967 4.32427981 -35.93359375 4.328125 C-37.3774369 4.3466452 -37.3774369 4.3466452 -38.85044861 4.36553955 C-39.74470047 4.36253845 -40.63895233 4.35953735 -41.56030273 4.35644531 C-42.74039162 4.36191376 -42.74039162 4.36191376 -43.94432068 4.36749268 C-46 4 -46 4 -49 1 C-32.83 0.67 -16.66 0.34 0 0 Z " fill="#1585A9" transform="translate(233,325)"/>
<path d="M0 0 C0.66 0 1.32 0 2 0 C4.38135792 8.30706251 6.59128562 16.31481952 7 25 C4 23 4 23 3 19.4375 C2.67 18.303125 2.34 17.16875 2 16 C1.01 15.67 0.02 15.34 -1 15 C-2.2291942 12.02033028 -1.95725473 9.97264839 -1.0625 6.9375 C-0.32617654 4.39694023 0 2.69602824 0 0 Z " fill="#259CC3" transform="translate(154,201)"/>
<path d="M0 0 C0.99 0 1.98 0 3 0 C3.33634597 3.47557505 2.71506209 6.0786122 1.5625 9.3125 C0.04692953 13.57325472 -0.59117114 17.50288249 -1 22 C-2.32 22.33 -3.64 22.66 -5 23 C-3 3 -3 3 0 0 Z " fill="#258CAD" transform="translate(237,303)"/>
<path d="M0 0 C0.33 0 0.66 0 1 0 C1 44.375 1 44.375 0 51 C-0.33 51 -0.66 51 -1 51 C-1.33 34.83 -1.66 18.66 -2 2 C-1.34 2 -0.68 2 0 2 C0 1.34 0 0.68 0 0 Z " fill="#208AAD" transform="translate(144,149)"/>
<path d="M0 0 C0.33 0 0.66 0 1 0 C1 9.57 1 19.14 1 29 C0.67 29 0.34 29 0 29 C-0.33 26.36 -0.66 23.72 -1 21 C-1.99 21.66 -2.98 22.32 -4 23 C-3.48400816 15.1177798 -1.9078547 7.65541695 0 0 Z " fill="#1B82A5" transform="translate(275,131)"/>
<path d="M0 0 C0.66 0.66 1.32 1.32 2 2 C0.66666667 6 -0.66666667 10 -2 14 C-1.34 14.33 -0.68 14.66 0 15 C-0.33 15.33 -0.66 15.66 -1 16 C-1.23075082 17.34747084 -1.41153063 18.70377565 -1.5625 20.0625 C-1.706875 21.361875 -1.85125 22.66125 -2 24 C-2.66 24 -3.32 24 -4 24 C-3.9175 25.0725 -3.835 26.145 -3.75 27.25 C-4.0412987 31.61948047 -4.8634371 32.20919994 -8 35 C-7.79503906 34.2265625 -7.59007812 33.453125 -7.37890625 32.65625 C-5.62718146 25.88403166 -4.30175244 19.45084845 -3.828125 12.46484375 C-3.45237687 7.55844033 -3.09797327 4.0408347 0 0 Z " fill="#2397BD" transform="translate(250,263)"/>
<path d="M0 0 C8.68572311 7.28399258 8.68572311 7.28399258 12 11 C12 11.99 12 12.98 12 14 C11.38125 13.814375 10.7625 13.62875 10.125 13.4375 C7.95839822 12.76313824 7.95839822 12.76313824 6 14 C4 13 4 13 3 10.1875 C2.505 8.6096875 2.505 8.6096875 2 7 C1.62875 6.278125 1.2575 5.55625 0.875 4.8125 C0 3 0 3 0 0 Z " fill="#2295BB" transform="translate(170,95)"/>
<path d="M0 0 C3.85244404 2.95354043 4.8233696 5.7583192 5.6953125 10.33984375 C6.25435537 15.22071805 6.14934666 20.09645126 6 25 C3.5871957 21.38079355 2.82678754 17.79876463 1.875 13.625 C1.69324219 12.86960937 1.51148438 12.11421875 1.32421875 11.3359375 C0.42936046 7.48737403 -0.2378791 3.98051023 0 0 Z " fill="#197D9D" transform="translate(169,101)"/>
<path d="M0 0 C0.33 0 0.66 0 1 0 C1 2.97 1 5.94 1 9 C0.01 9.495 0.01 9.495 -1 10 C-1.68931344 12.34907875 -1.68931344 12.34907875 -2.125 15.0625 C-2.29257812 15.98160156 -2.46015625 16.90070313 -2.6328125 17.84765625 C-2.75398438 18.55792969 -2.87515625 19.26820313 -3 20 C-3.99 20.33 -4.98 20.66 -6 21 C-6.34035816 15.4904523 -5.31361461 11.48674732 -3 6.5625 C-2.71382813 5.92634766 -2.42765625 5.29019531 -2.1328125 4.63476562 C-1.43347155 3.08455985 -0.71836143 1.54148389 0 0 Z " fill="#2297BD" transform="translate(274,164)"/>
<path d="M0 0 C0.19294408 4.82360189 -0.24252386 8.49646738 -2 13 C-2.99 13 -3.98 13 -5 13 C-6.47405581 10.05188838 -5.50052256 8.00153355 -4.67578125 4.91015625 C-3.89277772 2.69692661 -2.68552499 0 0 0 Z " fill="#2294BA" transform="translate(264,210)"/>
<path d="M0 0 C0.33 0 0.66 0 1 0 C1.20852314 6.40629424 1.1583195 11.92972642 -1 18 C-1.66 17.67 -2.32 17.34 -3 17 C-2.22095672 5.47835991 -2.22095672 5.47835991 0 0 Z " fill="#1D82A4" transform="translate(270,156)"/>
<path d="M0 0 C2.49505962 2.49505962 2.35948376 3.67328888 2.625 7.125 C2.69976562 8.03507812 2.77453125 8.94515625 2.8515625 9.8828125 C2.92503906 10.93082031 2.92503906 10.93082031 3 12 C2.34 12 1.68 12 1 12 C0.34 13.32 -0.32 14.64 -1 16 C-1.02701408 13.89590361 -1.04640223 11.79170822 -1.0625 9.6875 C-1.07410156 8.51574219 -1.08570313 7.34398437 -1.09765625 6.13671875 C-1 3 -1 3 0 0 Z " fill="#27A1C9" transform="translate(170,268)"/>
<path d="M0 0 C4.34690791 4.93966808 5.31381216 10.56685067 5 17 C4.34 17 3.68 17 3 17 C2.49255577 15.10614563 1.99435426 13.20981334 1.5 11.3125 C1.2215625 10.25675781 0.943125 9.20101562 0.65625 8.11328125 C0.0608285 5.28857328 -0.12786492 2.87163292 0 0 Z " fill="#1B83A5" transform="translate(197,222)"/>
<path d="M0 0 C0.33 0.66 0.66 1.32 1 2 C1.66 2 2.32 2 3 2 C4.20568053 6.67201205 4.09382426 11.21496292 4 16 C2.5393715 13.35261084 2 12.10551666 2 9 C1.01 9.33 0.02 9.66 -1 10 C-0.835 9.0925 -0.67 8.185 -0.5 7.25 C0.10137146 3.88912497 0.10137146 3.88912497 0 0 Z " fill="#238CB0" transform="translate(178,131)"/>
<path d="M0 0 C1.31501363 2.16590481 2.03022952 3.50121292 1.875 6.0625 C0.74991319 8.55376366 -0.73274047 9.53725191 -3 11 C-4.0625 9.1875 -4.0625 9.1875 -5 7 C-4.67 6.01 -4.34 5.02 -4 4 C-3.34 4.66 -2.68 5.32 -2 6 C-1.34 4.02 -0.68 2.04 0 0 Z " fill="#268FB2" transform="translate(268,180)"/>
<path d="M0 0 C3.00617269 3.00617269 2.59585316 5.82381598 3 10 C2.01 10.33 1.02 10.66 0 11 C-1.125 3.375 -1.125 3.375 0 0 Z " fill="#1B85A7" transform="translate(185,163)"/>
<path d="M0 0 C1.77049689 -0.05410687 3.54146849 -0.09284119 5.3125 -0.125 C6.29863281 -0.14820313 7.28476563 -0.17140625 8.30078125 -0.1953125 C11 0 11 0 14 2 C12.22932584 2.16834933 10.45845388 2.33461909 8.6875 2.5 C7.70136719 2.5928125 6.71523437 2.685625 5.69921875 2.78125 C3 3 3 3 0 3 C0 2.01 0 1.02 0 0 Z " fill="#2399C1" transform="translate(101,330)"/>
<path d="M0 0 C3.5991308 5.3986962 4.26122419 10.6000073 4 17 C0.4008692 11.6013038 -0.26122419 6.3999927 0 0 Z " fill="#279FC5" transform="translate(161,228)"/>
<path d="M0 0 C0.33 0.99 0.66 1.98 1 3 C1.66 3 2.32 3 3 3 C3 4.98 3 6.96 3 9 C3.66 9 4.32 9 5 9 C4.67 10.65 4.34 12.3 4 14 C3.34 13.67 2.68 13.34 2 13 C2 10.36 2 7.72 2 5 C1.34 5 0.68 5 0 5 C0 3.35 0 1.7 0 0 Z " fill="#2094BA" transform="translate(206,253)"/>
<path d="M0 0 C0.99 0 1.98 0 3 0 C3.125 2.875 3.125 2.875 3 6 C2.34 6.66 1.68 7.32 1 8 C0.34 7.67 -0.32 7.34 -1 7 C-0.67 4.69 -0.34 2.38 0 0 Z " fill="#1D87A9" transform="translate(252,236)"/>
<path d="M0 0 C1.485 0.99 1.485 0.99 3 2 C3.6875 5.625 3.6875 5.625 4 9 C2.68 9 1.36 9 0 9 C-1.15941038 5.52176885 -0.70820884 3.54104422 0 0 Z " fill="#2D9BC0" transform="translate(146,165)"/>
<path d="M0 0 C0.66 0 1.32 0 2 0 C2.39063507 1.43333021 2.76198474 2.87192679 3.125 4.3125 C3.33382812 5.11300781 3.54265625 5.91351563 3.7578125 6.73828125 C4 9 4 9 2 12 C0.70756464 7.8803623 -0.26252625 4.33168317 0 0 Z " fill="#197D9E" transform="translate(178,140)"/>
<path d="M0 0 C2.56687367 3.8503105 1.83288724 5.58569763 1 10 C0.34 9.67 -0.32 9.34 -1 9 C-1.75 6.125 -1.75 6.125 -2 3 C-1.34 2.01 -0.68 1.02 0 0 Z " fill="#1E9BC5" transform="translate(165,246)"/>
<path d="M0 0 C0.99 0.495 0.99 0.495 2 1 C3.28317892 4.84953676 3.06643637 7.94738135 3 12 C0.97649676 8.96474514 0.67875982 7.80573798 0.375 4.3125 C0.30023438 3.50425781 0.22546875 2.69601563 0.1484375 1.86328125 C0.09945312 1.24839844 0.05046875 0.63351563 0 0 Z " fill="#167C9C" transform="translate(181,153)"/>
<path d="M0 0 C2 1.125 2 1.125 4 3 C4.25 6.1875 4.25 6.1875 4 9 C3.34 9 2.68 9 2 9 C1.34 6.03 0.68 3.06 0 0 Z " fill="#1D7E9D" transform="translate(166,91)"/>
<path d="M0 0 C2 2 2 2 2.125 5.125 C2.08375 6.07375 2.0425 7.0225 2 8 C1.01 7.67 0.02 7.34 -1 7 C-1.625 5.0625 -1.625 5.0625 -2 3 C-2.33 2.34 -2.66 1.68 -3 1 C-2.01 0.67 -1.02 0.34 0 0 Z " fill="#249FC8" transform="translate(174,286)"/>
<path d="M0 0 C0.66 0.33 1.32 0.66 2 1 C2.125 3.875 2.125 3.875 2 7 C1.34 7.66 0.68 8.32 0 9 C-1.125 2.25 -1.125 2.25 0 0 Z " fill="#1D85A7" transform="translate(250,245)"/>
<path d="M0 0 C0.33 0 0.66 0 1 0 C1.66 3.63 2.32 7.26 3 11 C2.34 11 1.68 11 1 11 C-0.59555725 7.50971852 -1.32049797 4.84597567 -1 1 C-0.67 0.67 -0.34 0.34 0 0 Z " fill="#349CBF" transform="translate(145,153)"/>
<path d="M0 0 C1.98 0.99 1.98 0.99 4 2 C4 3.98 4 5.96 4 8 C0 3.375 0 3.375 0 0 Z " fill="#288FB1" transform="translate(250,242)"/>
</svg>
