<?xml version="1.0" encoding="UTF-8"?>
<svg version="1.1" xmlns="http://www.w3.org/2000/svg" width="230" height="49">
<path d="M0 0 C11.22 0 22.44 0 34 0 C34 10.23 34 20.46 34 31 C22.78 31 11.56 31 0 31 C0 20.77 0 10.54 0 0 Z " fill="#35ADDB" transform="translate(17,9)"/>
<path d="M0 0 C2.97 0.495 2.97 0.495 6 1 C7.25 3.25 7.25 3.25 8 6 C8.37125 6.928125 8.7425 7.85625 9.125 8.8125 C9.558125 9.8953125 9.558125 9.8953125 10 11 C12.99192678 8.24290468 14.74043758 5.16364469 16.71875 1.64453125 C17.1415625 1.10183594 17.564375 0.55914062 18 0 C18.99 0 19.98 0 21 0 C21 6.93 21 13.86 21 21 C20.01 21 19.02 21 18 21 C17.67 18.36 17.34 15.72 17 13 C16.608125 13.474375 16.21625 13.94875 15.8125 14.4375 C13.59191626 16.35179633 11.86624291 16.61266988 9 17 C8.01 15.68 7.02 14.36 6 13 C5.67 15.31 5.34 17.62 5 20 C3.35 20.33 1.7 20.66 0 21 C0 14.07 0 7.14 0 0 Z M3 7 C4 9 4 9 4 9 Z M5 10 C6 12 6 12 6 12 Z M15 10 C16 12 16 12 16 12 Z " fill="#FDFDFD" transform="translate(192,15)"/>
<path d="M0 0 C2.0625 1.75 2.0625 1.75 3 4 C2.79797087 8.1415971 2.04996439 8.95003561 -1 12 C0.98 14.64 2.96 17.28 5 20 C4.01 20.33 3.02 20.66 2 21 C0.68 19.35 -0.64 17.7 -2 16 C-4.33075929 16.95865509 -4.33075929 16.95865509 -6 20 C-7.65 20.33 -9.3 20.66 -11 21 C-11 14.07 -11 7.14 -11 0 C-7.0891598 -1.3036134 -3.96483418 -1.06333391 0 0 Z M-7 3 C-7.33 4.98 -7.66 6.96 -8 9 C-4.535 8.505 -4.535 8.505 -1 8 C-1.66 7.01 -2.32 6.02 -3 5 C-3.66 5 -4.32 5 -5 5 C-5.66 4.34 -6.32 3.68 -7 3 Z M-5 3 C-1 4 -1 4 -1 4 Z M-1 4 C-1 7 -1 7 -1 7 Z " fill="#FFFFFF" transform="translate(157,15)"/>
<path d="M0 0 C1.50433594 0.01353516 1.50433594 0.01353516 3.0390625 0.02734375 C3.80992187 0.03894531 4.58078125 0.05054688 5.375 0.0625 C5.705 0.7225 6.035 1.3825 6.375 2.0625 C5.4375 4.1875 5.4375 4.1875 4.375 6.0625 C3.67375 5.8975 2.9725 5.7325 2.25 5.5625 C-0.80154836 5.03179594 -3.53416821 4.85644455 -6.625 5.0625 C-9.04644512 7.05935749 -9.04644512 7.05935749 -9 11 C-8.91194468 13.85402833 -8.85984076 14.76190383 -7.0625 17.0625 C-3.8264503 18.39011013 -1.08593134 18.26216912 2.375 18.0625 C2.375 16.7425 2.375 15.4225 2.375 14.0625 C1.055 14.0625 -0.265 14.0625 -1.625 14.0625 C-1.625 13.0725 -1.625 12.0825 -1.625 11.0625 C0.685 11.0625 2.995 11.0625 5.375 11.0625 C5.375 14.0325 5.375 17.0025 5.375 20.0625 C1.07460163 22.21269919 -0.91312373 22.47582248 -5.625 22.0625 C-9.1636994 20.41110695 -10.43570153 19.34644771 -12.625 16.0625 C-13.0390625 14.125 -13.0390625 14.125 -13.25 12.0625 C-13.32476562 11.381875 -13.39953125 10.70125 -13.4765625 10 C-13.60234294 8.35823423 -13.625 6.70907692 -13.625 5.0625 C-12.965 5.0625 -12.305 5.0625 -11.625 5.0625 C-10.27067325 3.75049596 -8.93766518 2.41618596 -7.625 1.0625 C-4.98041621 -0.25979189 -2.94738699 -0.03427194 0 0 Z " fill="#FEFEFE" transform="translate(131.625,13.9375)"/>
<path d="M0 0 C1.828125 0.12109375 1.828125 0.12109375 4 1 C5.484375 3.72265625 5.484375 3.72265625 6.75 7.0625 C7.17796875 8.16722656 7.6059375 9.27195312 8.046875 10.41015625 C8.36140625 11.26480469 8.6759375 12.11945312 9 13 C9.33 12.34 9.66 11.68 10 11 C11.80411967 13.75924185 12.0127245 14.88972103 11.625 18.25 C11.315625 19.61125 11.315625 19.61125 11 21 C9.0625 20.25 9.0625 20.25 7 19 C6.67 17.68 6.34 16.36 6 15 C3.03 15 0.06 15 -3 15 C-3.2475 15.804375 -3.495 16.60875 -3.75 17.4375 C-5 20 -5 20 -7.125 20.8125 C-7.74375 20.874375 -8.3625 20.93625 -9 21 C-9.125 18.125 -9.125 18.125 -9 15 C-8.34 14.34 -7.68 13.68 -7 13 C-6.30640354 11.68047502 -5.64334704 10.34474043 -5 9 C-4.13264008 7.41246851 -3.25748076 5.8291761 -2.375 4.25 C-1.92898437 3.45078125 -1.48296875 2.6515625 -1.0234375 1.828125 C-0.68570313 1.22484375 -0.34796875 0.6215625 0 0 Z M1 4 C2 7 2 7 2 7 Z M0 7 C1 9 1 9 1 9 Z M2 7 C3 9 3 9 3 9 Z M-1 10 C-1.33 10.66 -1.66 11.32 -2 12 C-0.02 12 1.96 12 4 12 C3.67 11.34 3.34 10.68 3 10 C1.68 10 0.36 10 -1 10 Z M-8 16 C-7 18 -7 18 -7 18 Z " fill="#FFFFFF" transform="translate(174,15)"/>
<path d="M0 0 C1.32 0 2.64 0 4 0 C4 5.61 4 11.22 4 17 C6.97 17 9.94 17 13 17 C13 18.32 13 19.64 13 21 C8.71 21 4.42 21 0 21 C0 14.07 0 7.14 0 0 Z " fill="#FFFEFF" transform="translate(67,15)"/>
<path d="M0 0 C0.66 0 1.32 0 2 0 C3.46582355 2.14281033 4.81123514 4.26706396 6.125 6.5 C6.49753906 7.12003906 6.87007812 7.74007813 7.25390625 8.37890625 C8.17578953 9.91537838 9.08873475 11.45720675 10 13 C10.48210938 12.13375 10.96421875 11.2675 11.4609375 10.375 C12.09257813 9.26125 12.72421875 8.1475 13.375 7 C14.00148438 5.88625 14.62796875 4.7725 15.2734375 3.625 C16.12808594 2.325625 16.12808594 2.325625 17 1 C17.66 1 18.32 1 19 1 C19 7.27 19 13.54 19 20 C18.67 20 18.34 20 18 20 C18 15.05 18 10.1 18 5 C17.34 5 16.68 5 16 5 C15.9175 5.515625 15.835 6.03125 15.75 6.5625 C14.67859775 10.04455732 12.86476395 12.87200885 11 16 C6.33845958 14.50164772 5.13389249 11.11536409 3 7 C2.67 11.29 2.34 15.58 2 20 C1.34 20 0.68 20 0 20 C0 13.4 0 6.8 0 0 Z " fill="#B0ECF8" transform="translate(24,15)"/>
<path d="M0 0 C0.99 0 1.98 0 3 0 C3 5.61 3 11.22 3 17 C5.97 17 8.94 17 12 17 C12 18.32 12 19.64 12 21 C8.04 21 4.08 21 0 21 C0 14.07 0 7.14 0 0 Z " fill="#FEFEFE" transform="translate(87,15)"/>
<path d="M0 0 C0.99 0 1.98 0 3 0 C3 6.93 3 13.86 3 21 C1.68 20.67 0.36 20.34 -1 20 C-1.02888514 16.85418577 -1.04675923 13.70840531 -1.0625 10.5625 C-1.07087891 9.66466797 -1.07925781 8.76683594 -1.08789062 7.84179688 C-1.09111328 6.98779297 -1.09433594 6.13378906 -1.09765625 5.25390625 C-1.10551147 4.06776733 -1.10551147 4.06776733 -1.11352539 2.85766602 C-1 1 -1 1 0 0 Z " fill="#FFFFFF" transform="translate(107,15)"/>
<path d="M0 0 C0.99 0 1.98 0 3 0 C3 6.93 3 13.86 3 21 C2.01 21 1.02 21 0 21 C0 14.07 0 7.14 0 0 Z " fill="#FDFEFE" transform="translate(54,15)"/>
<path d="M0 0 C0.66 0 1.32 0 2 0 C2 6.6 2 13.2 2 20 C1.34 20 0.68 20 0 20 C0 13.4 0 6.8 0 0 Z " fill="#FFFEFF" transform="translate(58,15)"/>
<path d="M0 0 C0.33 0 0.66 0 1 0 C1 6.6 1 13.2 1 20 C0.34 20 -0.32 20 -1 20 C-1.02888514 16.85418577 -1.04675923 13.70840531 -1.0625 10.5625 C-1.07087891 9.66466797 -1.07925781 8.76683594 -1.08789062 7.84179688 C-1.09111328 6.98779297 -1.09433594 6.13378906 -1.09765625 5.25390625 C-1.10551147 4.06776733 -1.10551147 4.06776733 -1.11352539 2.85766602 C-1 1 -1 1 0 0 Z " fill="#FFFFFF" transform="translate(190,15)"/>
<path d="M0 0 C0.33 0 0.66 0 1 0 C1 10.23 1 20.46 1 31 C0.67 31 0.34 31 0 31 C0 20.77 0 10.54 0 0 Z " fill="#9AF9FC" transform="translate(52,9)"/>
<path d="M0 0 C0.33 0 0.66 0 1 0 C1 4.62 1 9.24 1 14 C0.67 14 0.34 14 0 14 C-0.33 11.36 -0.66 8.72 -1 6 C-1.99 7.32 -2.98 8.64 -4 10 C-3.4359146 6.05140217 -2.2568294 3.29120954 0 0 Z " fill="#2B9EC8" transform="translate(40,21)"/>
<path d="M0 0 C0.66 0 1.32 0 2 0 C2.33 1.32 2.66 2.64 3 4 C2.34 4 1.68 4 1 4 C1 8.95 1 13.9 1 19 C0.67 19 0.34 19 0 19 C0 12.73 0 6.46 0 0 Z " fill="#BCF6FE" transform="translate(24,15)"/>
<path d="M0 0 C0.33 0 0.66 0 1 0 C1 6.93 1 13.86 1 21 C0.67 21 0.34 21 0 21 C0 14.07 0 7.14 0 0 Z " fill="#FFFFFF" transform="translate(144,14)"/>
<path d="M0 0 C0.99 0.99 1.98 1.98 3 3 C3 3.66 3 4.32 3 5 C2.34 5 1.68 5 1 5 C1 7.97 1 10.94 1 14 C0.67 14 0.34 14 0 14 C0 9.38 0 4.76 0 0 Z " fill="#309FC8" transform="translate(26,21)"/>
<path d="M0 0 C0.33 0 0.66 0 1 0 C1 6.6 1 13.2 1 20 C0.67 20 0.34 20 0 20 C0 13.4 0 6.8 0 0 Z " fill="#FFFEFF" transform="translate(65,15)"/>
<path d="M0 0 C0.33 0 0.66 0 1 0 C1 6.6 1 13.2 1 20 C0.67 20 0.34 20 0 20 C0 13.4 0 6.8 0 0 Z " fill="#FFFFFF" transform="translate(111,15)"/>
<path d="M0 0 C0.66 0.33 1.32 0.66 2 1 C1.690625 1.9075 1.38125 2.815 1.0625 3.75 C0.2727737 6.16563338 -0.42949297 8.52780285 -1 11 C-2.89488952 9.10511048 -2.18019112 6.42860854 -2.23046875 3.91015625 C-2 2 -2 2 0 0 Z " fill="#FFFFFF" transform="translate(125,19)"/>
<path d="M0 0 C0.33 0 0.66 0 1 0 C1 6.27 1 12.54 1 19 C0.67 19 0.34 19 0 19 C0 12.73 0 6.46 0 0 Z " fill="#FFFFFF" transform="translate(104,16)"/>
<path d="M0 0 C0.33 0 0.66 0 1 0 C1 5.94 1 11.88 1 18 C0.67 18 0.34 18 0 18 C0 12.06 0 6.12 0 0 Z " fill="#FFFFFF" transform="translate(85,16)"/>
<path d="M0 0 C-3.00617269 3.00617269 -5.82381598 2.59585316 -10 3 C-10 2.34 -10 1.68 -10 1 C-8.71073008 0.63720544 -7.41846728 0.28503302 -6.125 -0.0625 C-5.40570313 -0.25972656 -4.68640625 -0.45695312 -3.9453125 -0.66015625 C-2 -1 -2 -1 0 0 Z " fill="#FFFFFF" transform="translate(137,36)"/>
<path d="M0 0 C0.33 0 0.66 0 1 0 C1 5.28 1 10.56 1 16 C0.67 16 0.34 16 0 16 C0 10.72 0 5.44 0 0 Z " fill="#FEFEFE" transform="translate(214,19)"/>
<path d="M0 0 C0.33 0 0.66 0 1 0 C1 5.28 1 10.56 1 16 C0.67 16 0.34 16 0 16 C0 10.72 0 5.44 0 0 Z " fill="#FFFFFF" transform="translate(72,15)"/>
<path d="M0 0 C0.99 0.495 0.99 0.495 2 1 C2 2.98 2 4.96 2 7 C0 5 0 5 -0.125 2.375 C-0.08375 1.59125 -0.0425 0.8075 0 0 Z " fill="#FFFFFF" transform="translate(116,23)"/>
<path d="M0 0 C3.3 0 6.6 0 10 0 C10 0.33 10 0.66 10 1 C6.7 1 3.4 1 0 1 C0 0.67 0 0.34 0 0 Z " fill="#FFFFFF" transform="translate(69,37)"/>
<path d="M0 0 C1.65 0 3.3 0 5 0 C5 0.66 5 1.32 5 2 C3.35 2 1.7 2 0 2 C0 1.34 0 0.68 0 0 Z " fill="#FFFFFF" transform="translate(131,22)"/>
<path d="M0 0 C2.5654594 2.5654594 2.54046087 4.47686668 3 8 C0.4345406 5.4345406 0.45953913 3.52313332 0 0 Z " fill="#FFFFFF" transform="translate(180,18)"/>
<path d="M0 0 C2.97 0 5.94 0 9 0 C9 0.33 9 0.66 9 1 C6.03 1 3.06 1 0 1 C0 0.67 0 0.34 0 0 Z " fill="#FEFEFE" transform="translate(89,37)"/>
<path d="M0 0 C0.5534764 2.07553648 1 3.84365964 1 6 C0.34 6 -0.32 6 -1 6 C-0.67 4.02 -0.34 2.04 0 0 Z " fill="#FFFFFF" transform="translate(208,29)"/>
<path d="M0 0 C2.64 0 5.28 0 8 0 C8 0.33 8 0.66 8 1 C5.36 1 2.72 1 0 1 C0 0.67 0 0.34 0 0 Z " fill="#FFFFFF" transform="translate(147,12)"/>
<path d="M0 0 C2.31 0 4.62 0 7 0 C7 0.33 7 0.66 7 1 C4.69 1 2.38 1 0 1 C0 0.67 0 0.34 0 0 Z " fill="#FFFFFF" transform="translate(172,31)"/>
<path d="M0 0 C0.33 0 0.66 0 1 0 C1 2.31 1 4.62 1 7 C0.67 7 0.34 7 0 7 C0 4.69 0 2.38 0 0 Z " fill="#FFFFFF" transform="translate(138,26)"/>
<path d="M0 0 C0 0.99 0 1.98 0 3 C-0.66 3.66 -1.32 4.32 -2 5 C-1.125 1.125 -1.125 1.125 0 0 Z " fill="#FFFFFF" transform="translate(173,13)"/>
<path d="M0 0 C2.31 0 4.62 0 7 0 C7 0.33 7 0.66 7 1 C4.69 1 2.38 1 0 1 C0 0.67 0 0.34 0 0 Z " fill="#FFFFFF" transform="translate(126,12)"/>
<path d="M0 0 C0.33 0.99 0.66 1.98 1 3 C0.34 3.66 -0.32 4.32 -1 5 C-0.67 3.35 -0.34 1.7 0 0 Z " fill="#FFFFFF" transform="translate(170,18)"/>
<path d="M0 0 C0.99 0.33 1.98 0.66 3 1 C2.01 1.33 1.02 1.66 0 2 C0 1.34 0 0.68 0 0 Z " fill="#FFFFFF" transform="translate(201,33)"/>
<path d="M0 0 C0.99 0.99 1.98 1.98 3 3 C2.01 2.67 1.02 2.34 0 2 C0 1.34 0 0.68 0 0 Z " fill="#FFFFFF" transform="translate(154,32)"/>
<path d="M0 0 C0.33 0 0.66 0 1 0 C1 1.65 1 3.3 1 5 C0.67 5 0.34 5 0 5 C0 3.35 0 1.7 0 0 Z " fill="#FFFFFF" transform="translate(161,18)"/>
<path d="M0 0 C1.98 0.99 1.98 0.99 4 2 C2.68 1.67 1.36 1.34 0 1 C0 0.67 0 0.34 0 0 Z " fill="#FFFFFF" transform="translate(132,19)"/>
<path d="M0 0 C0.99 0.33 1.98 0.66 3 1 C1.68 1.33 0.36 1.66 -1 2 C-0.67 1.34 -0.34 0.68 0 0 Z " fill="#FFFFFF" transform="translate(123,13)"/>
<path d="M0 0 C0.99 0.33 1.98 0.66 3 1 C2.01 1 1.02 1 0 1 C0 0.67 0 0.34 0 0 Z " fill="#FFFFFF" transform="translate(122,35)"/>
<path d="M0 0 C0.99 0.495 0.99 0.495 2 1 C1.67 1.66 1.34 2.32 1 3 C0.67 2.01 0.34 1.02 0 0 Z " fill="#FFFFFF" transform="translate(198,29)"/>
<path d="M0 0 C0.99 0.495 0.99 0.495 2 1 C1.67 1.66 1.34 2.32 1 3 C0.67 2.01 0.34 1.02 0 0 Z " fill="#FFFFFF" transform="translate(159,29)"/>
<path d="M0 0 C4 1 4 1 4 1 Z " fill="#FFFFFF" transform="translate(93,30)"/>
<path d="M0 0 C4 1 4 1 4 1 Z " fill="#FFFFFF" transform="translate(74,30)"/>
<path d="M0 0 C0.99 0.495 0.99 0.495 2 1 C1.67 1.66 1.34 2.32 1 3 C0.67 2.01 0.34 1.02 0 0 Z " fill="#FFFFFF" transform="translate(157,26)"/>
<path d="M0 0 C0.99 0.495 0.99 0.495 2 1 C1.67 1.66 1.34 2.32 1 3 C0.67 2.01 0.34 1.02 0 0 Z " fill="#FFFFFF" transform="translate(200,21)"/>
<path d="M0 0 C0 3 0 3 0 3 Z " fill="#FFFFFF" transform="translate(204,21)"/>
<path d="M0 0 C0.66 0.66 1.32 1.32 2 2 C1.34 2 0.68 2 0 2 C0 1.34 0 0.68 0 0 Z " fill="#FFFFFF" transform="translate(157,35)"/>
<path d="" fill="#FFFFFF" transform="translate(0,0)"/>
<path d="M0 0 C0.66 0 1.32 0 2 0 C1.67 0.66 1.34 1.32 1 2 C0.67 1.34 0.34 0.68 0 0 Z " fill="#FEFEFE" transform="translate(131,29)"/>
<path d="M0 0 C0.33 0.66 0.66 1.32 1 2 C0.34 1.67 -0.32 1.34 -1 1 C-0.67 0.67 -0.34 0.34 0 0 Z " fill="#FFFFFF" transform="translate(160,23)"/>
<path d="M0 0 C0.33 0.66 0.66 1.32 1 2 C0.34 1.67 -0.32 1.34 -1 1 C-0.67 0.67 -0.34 0.34 0 0 Z " fill="#FFFFFF" transform="translate(209,13)"/>
<path d="" fill="#FFFFFF" transform="translate(0,0)"/>
<path d="" fill="#FFFFFF" transform="translate(0,0)"/>
<path d="" fill="#FFFFFF" transform="translate(0,0)"/>
<path d="" fill="#FFFFFF" transform="translate(0,0)"/>
<path d="" fill="#FFFFFF" transform="translate(0,0)"/>
<path d="" fill="#FFFFFF" transform="translate(0,0)"/>
<path d="" fill="#FFFFFF" transform="translate(0,0)"/>
<path d="" fill="#FFFFFF" transform="translate(0,0)"/>
<path d="" fill="#FFFFFF" transform="translate(0,0)"/>
<path d="" fill="#FFFFFF" transform="translate(0,0)"/>
<path d="" fill="#FFFFFF" transform="translate(0,0)"/>
<path d="" fill="#FFFFFF" transform="translate(0,0)"/>
<path d="" fill="#FFFFFF" transform="translate(0,0)"/>
<path d="" fill="#FFFFFF" transform="translate(0,0)"/>
<path d="" fill="#FFFFFF" transform="translate(0,0)"/>
<path d="" fill="#FFFFFF" transform="translate(0,0)"/>
<path d="" fill="#FFFDFF" transform="translate(0,0)"/>
<path d="M0 0 C2 1 2 1 2 1 Z " fill="#FFFFFF" transform="translate(155,13)"/>
<path d="M0 0 C2 1 2 1 2 1 Z " fill="#FFFFFF" transform="translate(133,13)"/>
<path d="M0 0 C2 1 2 1 2 1 Z " fill="#FFFFFF" transform="translate(210,12)"/>
<path d="M0 0 C2 1 2 1 2 1 Z " fill="#FFFFFF" transform="translate(68,12)"/>
<path d="M0 0 C2 1 2 1 2 1 Z " fill="#FEFFFF" transform="translate(55,12)"/>
<path d="" fill="#FFFFFF" transform="translate(0,0)"/>
<path d="" fill="#FFFFFF" transform="translate(0,0)"/>
<path d="" fill="#FFFFFF" transform="translate(0,0)"/>
<path d="" fill="#FFFFFF" transform="translate(0,0)"/>
<path d="" fill="#FFFFFF" transform="translate(0,0)"/>
<path d="" fill="#FFFFFF" transform="translate(0,0)"/>
<path d="" fill="#FFFFFF" transform="translate(0,0)"/>
<path d="" fill="#FFFFFF" transform="translate(0,0)"/>
<path d="" fill="#FFFFFF" transform="translate(0,0)"/>
<path d="" fill="#FFFFFF" transform="translate(0,0)"/>
<path d="" fill="#FFFFFF" transform="translate(0,0)"/>
<path d="" fill="#FFFFFF" transform="translate(0,0)"/>
<path d="" fill="#FFFFFF" transform="translate(0,0)"/>
<path d="" fill="#FFFFFF" transform="translate(0,0)"/>
<path d="" fill="#FFFFFF" transform="translate(0,0)"/>
<path d="" fill="#FFFFFF" transform="translate(0,0)"/>
<path d="" fill="#FFFFFF" transform="translate(0,0)"/>
<path d="" fill="#FFFFFF" transform="translate(0,0)"/>
<path d="" fill="#FFFFFF" transform="translate(0,0)"/>
<path d="" fill="#FFFFFF" transform="translate(0,0)"/>
<path d="" fill="#FFFFFF" transform="translate(0,0)"/>
<path d="" fill="#FFFFFF" transform="translate(0,0)"/>
<path d="" fill="#FFFFFF" transform="translate(0,0)"/>
<path d="" fill="#FFFFFF" transform="translate(0,0)"/>
</svg>
