<?xml version="1.0" encoding="UTF-8"?>
<svg version="1.1" xmlns="http://www.w3.org/2000/svg" width="282" height="70">
<path d="M0 0 C93.06 0 186.12 0 282 0 C282 23.1 282 46.2 282 70 C188.94 70 95.88 70 0 70 C0 46.9 0 23.8 0 0 Z " fill="#575B62" transform="translate(0,0)"/>
<path d="M0 0 C13.86 0 27.72 0 42 0 C42 12.87 42 25.74 42 39 C28.14 39 14.28 39 0 39 C0 26.13 0 13.26 0 0 Z " fill="#3EA0C6" transform="translate(24,18)"/>
<path d="M0 0 C10.23 0 20.46 0 31 0 C31 11.22 31 22.44 31 34 C26.71 34 22.42 34 18 34 C18.66 32.68 19.32 31.36 20 30 C20 30.66 20 31.32 20 32 C21.65 32.33 23.3 32.66 25 33 C25 32.34 25 31.68 25 31 C24.01 31 23.02 31 22 31 C21.67 25.06 21.34 19.12 21 13 C20.030625 14.77375 19.06125 16.5475 18.0625 18.375 C17.24458984 19.87160156 17.24458984 19.87160156 16.41015625 21.3984375 C15.5850241 22.92070346 14.77435609 24.45128783 14 26 C12.68 26 11.36 26 10 26 C9.18247697 24.41925436 8.37118003 22.83528777 7.5625 21.25 C7.11003906 20.36828125 6.65757813 19.4865625 6.19140625 18.578125 C5.16544602 16.35801434 4.48491397 14.38555381 4 12 C3.34 12 2.68 12 2 12 C2 17.94 2 23.88 2 30 C1.34 30 0.68 30 0 30 C0 22.08 0 14.16 0 6 C0.99 6 1.98 6 3 6 C4.33858524 8.28874173 5.67101014 10.58069656 7 12.875 C7.3815625 13.52597656 7.763125 14.17695312 8.15625 14.84765625 C11 19.7734375 11 19.7734375 11 22 C13.96865509 19.45543849 15.3619751 16.51005335 17 13 C16.01 13 15.02 13 14 13 C13.67 14.65 13.34 16.3 13 18 C12.34 18 11.68 18 11 18 C7.58221513 13.75366122 6.43255525 10.40694067 6 5 C5.34 5 4.68 5 4 5 C4 4.34 4 3.68 4 3 C2.35 3 0.7 3 -1 3 C-0.67 2.01 -0.34 1.02 0 0 Z M25 8 C25 15.59 25 23.18 25 31 C25.66 30.67 26.32 30.34 27 30 C27 22.74 27 15.48 27 8 C26.34 8 25.68 8 25 8 Z " fill="#33ACDB" transform="translate(33,20)"/>
<path d="M0 0 C0.66 0 1.32 0 2 0 C2 7.26 2 14.52 2 22 C1.34 22.33 0.68 22.66 0 23 C0 15.41 0 7.82 0 0 Z M-4 4 C-3.67 4 -3.34 4 -3 4 C-3 10.27 -3 16.54 -3 23 C-2.01 23 -1.02 23 0 23 C0 23.66 0 24.32 0 25 C-1.175625 24.690625 -1.175625 24.690625 -2.375 24.375 C-3.674375 24.189375 -3.674375 24.189375 -5 24 C-5.66 24.66 -6.32 25.32 -7 26 C-9.9093558 26.14517744 -12.719946 26.18630796 -15.625 26.125 C-16.42679688 26.11597656 -17.22859375 26.10695313 -18.0546875 26.09765625 C-20.03658523 26.07406223 -22.01832981 26.03819065 -24 26 C-23.01 24.515 -23.01 24.515 -22 23 C-21.54084493 20.03157342 -21.54084493 20.03157342 -21.375 16.8125 C-21.30023438 15.72582031 -21.22546875 14.63914062 -21.1484375 13.51953125 C-21.09945312 12.68808594 -21.05046875 11.85664062 -21 11 C-20.01 10.67 -19.02 10.34 -18 10 C-15 14.625 -15 14.625 -15 18 C-13.68 18 -12.36 18 -11 18 C-10.773125 17.175 -10.54625 16.35 -10.3125 15.5 C-8.73798357 11.30128952 -6.64025547 7.62460158 -4 4 Z " fill="#36AEDA" transform="translate(58,28)"/>
<path d="M0 0 C11 0 11 0 13.75 1.5625 C15.54963144 5.07178131 15.03774589 7.26411481 14 11 C13.01 11.66 12.02 12.32 11 13 C11.5761678 16.88913264 13.56123803 19.01054984 16 22 C16 22.66 16 23.32 16 24 C15.34 24 14.68 24 14 24 C13.01055681 22.7262007 12.0816514 21.40490671 11.1875 20.0625 C8.82128029 16.69655471 8.82128029 16.69655471 5.125 15 C4.42375 15 3.7225 15 3 15 C3 17.97 3 20.94 3 24 C2.01 24 1.02 24 0 24 C0 16.08 0 8.16 0 0 Z " fill="#B5B6BC" transform="translate(187,26)"/>
<path d="M0 0 C0.99 0 1.98 0 3 0 C4.33858524 2.28874173 5.67101014 4.58069656 7 6.875 C7.3815625 7.52597656 7.763125 8.17695312 8.15625 8.84765625 C11 13.7734375 11 13.7734375 11 16 C14.85861875 12.64569921 16.80260288 8.05957314 19.18359375 3.6171875 C21 1 21 1 25 0 C25 8.25 25 16.5 25 25 C24.01 25 23.02 25 22 25 C21.67 19.06 21.34 13.12 21 7 C20.030625 8.77375 19.06125 10.5475 18.0625 12.375 C17.24458984 13.87160156 17.24458984 13.87160156 16.41015625 15.3984375 C15.5850241 16.92070346 14.77435609 18.45128783 14 20 C12.68 20 11.36 20 10 20 C9.18247697 18.41925436 8.37118003 16.83528777 7.5625 15.25 C7.11003906 14.36828125 6.65757813 13.4865625 6.19140625 12.578125 C5.16544602 10.35801434 4.48491397 8.38555381 4 6 C3.34 6 2.68 6 2 6 C2 11.94 2 17.88 2 24 C1.34 24 0.68 24 0 24 C0 16.08 0 8.16 0 0 Z " fill="#89DDF1" transform="translate(33,26)"/>
<path d="M0 0 C0.99 0.33 1.98 0.66 3 1 C4.02734375 3.22265625 4.02734375 3.22265625 4.9375 6.0625 C6.15789368 9.69069743 7.44680127 13.06048471 9.25 16.4375 C11 20 11 20 11 24 C9.0625 23.25 9.0625 23.25 7 22 C6.67 20.68 6.34 19.36 6 18 C2.04 18.33 -1.92 18.66 -6 19 C-6.33 20.98 -6.66 22.96 -7 25 C-7.99 25 -8.98 25 -10 25 C-9.4176232 19.36732443 -7.33205594 14.77154503 -5 9.6875 C-4.44699219 8.45290039 -4.44699219 8.45290039 -3.8828125 7.19335938 C-1.15472274 1.15472274 -1.15472274 1.15472274 0 0 Z " fill="#C3C4C7" transform="translate(222,26)"/>
<path d="M0 0 C0.99 0 1.98 0 3 0 C3 7.92 3 15.84 3 24 C2.34 24 1.68 24 1 24 C0.67 18.06 0.34 12.12 0 6 C-2.17930828 10.22780697 -2.17930828 10.22780697 -4.3371582 14.46655273 C-6.66666667 18.88888889 -6.66666667 18.88888889 -10 20 C-13.22522324 17.84985117 -13.73062163 16.93845623 -15.1875 13.5 C-15.53167969 12.7059375 -15.87585938 11.911875 -16.23046875 11.09375 C-17 9 -17 9 -17 7 C-17.66 7 -18.32 7 -19 7 C-19 12.61 -19 18.22 -19 24 C-19.99 24 -20.98 24 -22 24 C-22 16.41 -22 8.82 -22 1 C-17.6323084 2.0919229 -17.21367705 2.37761937 -15 6 C-14.690625 6.825 -14.38125 7.65 -14.0625 8.5 C-12.84115931 11.37374279 -11.24018266 12.86390664 -9 15 C-7.68647829 12.87562549 -6.37414287 10.75053408 -5.0625 8.625 C-4.68931641 8.02171875 -4.31613281 7.4184375 -3.93164062 6.796875 C-1.86411035 3.45600369 -1.86411035 3.45600369 0 0 Z " fill="#B4B5B8" transform="translate(266,26)"/>
<path d="M0 0 C1.299375 -0.03867187 1.299375 -0.03867187 2.625 -0.078125 C5 0.25 5 0.25 8 3.25 C3.71 2.92 -0.58 2.59 -5 2.25 C-5 2.91 -5 3.57 -5 4.25 C-5.99 5.054375 -5.99 5.054375 -7 5.875 C-9.35666478 8.67353943 -9.44076265 10.54638539 -9.43359375 14.15234375 C-8.82208564 17.11072081 -7.92187973 18.90821378 -6 21.25 C-3.03618482 21.85481772 -3.03618482 21.85481772 0.1875 21.5625 C1.81751953 21.49482422 1.81751953 21.49482422 3.48046875 21.42578125 C4.31191406 21.36777344 5.14335937 21.30976562 6 21.25 C6.33 19.27 6.66 17.29 7 15.25 C5.35 15.25 3.7 15.25 2 15.25 C2 14.59 2 13.93 2 13.25 C4.33294775 13.20758277 6.66702567 13.20907063 9 13.25 C10 14.25 10 14.25 10.09765625 16.31640625 C10.08605469 17.14011719 10.07445312 17.96382812 10.0625 18.8125 C10.05347656 19.63878906 10.04445312 20.46507813 10.03515625 21.31640625 C10.02355469 21.95449219 10.01195312 22.59257813 10 23.25 C6.62533835 25.27804186 3.91110976 25.57611113 0 25.625 C-1.03125 25.65335938 -2.0625 25.68171875 -3.125 25.7109375 C-6.667046 25.14305513 -7.83355327 24.05179889 -10 21.25 C-10 20.59 -10 19.93 -10 19.25 C-10.66 19.25 -11.32 19.25 -12 19.25 C-12.10864945 17.18867858 -12.18588321 15.12568679 -12.25 13.0625 C-12.29640625 11.91394531 -12.3428125 10.76539063 -12.390625 9.58203125 C-11.92296566 5.59289706 -10.83497684 4.03908693 -8 1.25 C-5.09458095 0.28152698 -3.03362546 0.05417188 0 0 Z " fill="#C4C5C8" transform="translate(165,25.75)"/>
<path d="M0 0 C0.99 0 1.98 0 3 0 C3 7.26 3 14.52 3 22 C6.63 22 10.26 22 14 22 C14 22.99 14 23.98 14 25 C11.85423363 25.02685938 9.70837355 25.04633088 7.5625 25.0625 C6.36753906 25.07410156 5.17257813 25.08570312 3.94140625 25.09765625 C1 25 1 25 0 24 C-0.08726223 22.21928754 -0.10699041 20.4351686 -0.09765625 18.65234375 C-0.09443359 17.57275391 -0.09121094 16.49316406 -0.08789062 15.38085938 C-0.07951172 14.24455078 -0.07113281 13.10824219 -0.0625 11.9375 C-0.05798828 10.79732422 -0.05347656 9.65714844 -0.04882812 8.48242188 C-0.03699747 5.65489649 -0.0205141 2.8274736 0 0 Z " fill="#ACAEB4" transform="translate(88,26)"/>
<path d="M0 0 C0.66 0 1.32 0 2 0 C2 7.26 2 14.52 2 22 C1.34 22.33 0.68 22.66 0 23 C0 15.41 0 7.82 0 0 Z M-4 4 C-3.67 4 -3.34 4 -3 4 C-3 10.27 -3 16.54 -3 23 C-2.01 23 -1.02 23 0 23 C0 23.66 0 24.32 0 25 C-1.65 24.67 -3.3 24.34 -5 24 C-5.33 20.37 -5.66 16.74 -6 13 C-6.99 13.99 -7.98 14.98 -9 16 C-8.54738642 14.56068883 -8.08767021 13.12361001 -7.625 11.6875 C-7.24214844 10.48673828 -7.24214844 10.48673828 -6.8515625 9.26171875 C-6 7 -6 7 -4 4 Z " fill="#3FA7CB" transform="translate(58,28)"/>
<path d="M0 0 C0.66 0 1.32 0 2 0 C2 6.93 2 13.86 2 21 C5.63 21 9.26 21 13 21 C13 21.99 13 22.98 13 24 C8.71 24 4.42 24 0 24 C0 16.08 0 8.16 0 0 Z " fill="#BBBEC2" transform="translate(113,27)"/>
<path d="M0 0 C6.625 -0.25 6.625 -0.25 10 2 C10.375 4.5 10.375 4.5 10 7 C6.3558226 9.4294516 4.28758728 9.16179575 0 9 C0 6.03 0 3.06 0 0 Z " fill="#5F6067" transform="translate(190,28)"/>
<path d="M0 0 C2.33294775 -0.04241723 4.66702567 -0.04092937 7 0 C8 1 8 1 8.09765625 3.06640625 C8.08605469 3.89011719 8.07445312 4.71382812 8.0625 5.5625 C8.05347656 6.38878906 8.04445312 7.21507812 8.03515625 8.06640625 C8.02355469 8.70449219 8.01195312 9.34257813 8 10 C4.5233662 12.14336161 1.78770805 12.21277626 -2.25 12.125 C-3.32765625 12.10695313 -4.4053125 12.08890625 -5.515625 12.0703125 C-6.33546875 12.04710937 -7.1553125 12.02390625 -8 12 C-8.33 11.34 -8.66 10.68 -9 10 C-4.71 9.34 -0.42 8.68 4 8 C4.33 6.02 4.66 4.04 5 2 C3.35 2 1.7 2 0 2 C0 1.34 0 0.68 0 0 Z " fill="#A1A2A5" transform="translate(167,39)"/>
<path d="M0 0 C0.33 0 0.66 0 1 0 C1 8.25 1 16.5 1 25 C-0.32 25 -1.64 25 -3 25 C-3.66 21.04 -4.32 17.08 -5 13 C-5.99 13.66 -6.98 14.32 -8 15 C-6.66654496 11.40992874 -5.1056769 8.20429093 -3 5 C-2.67 5 -2.34 5 -2 5 C-2 11.27 -2 17.54 -2 24 C-1.34 24 -0.68 24 0 24 C0 16.08 0 8.16 0 0 Z " fill="#8A8B8E" transform="translate(269,26)"/>
<path d="M0 0 C0.99 0 1.98 0 3 0 C3 7.92 3 15.84 3 24 C2.01 24 1.02 24 0 24 C0 16.08 0 8.16 0 0 Z " fill="#B6B8BD" transform="translate(137,26)"/>
<path d="M0 0 C0.66 0 1.32 0 2 0 C2 7.92 2 15.84 2 24 C1.01 24 0.02 24 -1 24 C-1.02887236 20.18751574 -1.04675492 16.3750593 -1.0625 12.5625 C-1.07087891 11.47388672 -1.07925781 10.38527344 -1.08789062 9.26367188 C-1.09111328 8.22919922 -1.09433594 7.19472656 -1.09765625 6.12890625 C-1.10289307 5.17056885 -1.10812988 4.21223145 -1.11352539 3.22485352 C-1 1 -1 1 0 0 Z " fill="#BCBEC2" transform="translate(72,26)"/>
<path d="M0 0 C0.99 0 1.98 0 3 0 C4.0625 1.8125 4.0625 1.8125 5 4 C4.67 4.99 4.34 5.98 4 7 C3.34 6.67 2.68 6.34 2 6 C2 11.94 2 17.88 2 24 C1.34 24 0.68 24 0 24 C0 16.08 0 8.16 0 0 Z " fill="#91E9FD" transform="translate(33,26)"/>
<path d="M0 0 C0.99 0 1.98 0 3 0 C3 7.92 3 15.84 3 24 C2.34 24 1.68 24 1 24 C0.67 18.06 0.34 12.12 0 6 C-0.99 6.495 -0.99 6.495 -2 7 C-1.125 2.25 -1.125 2.25 0 0 Z " fill="#C4C5C8" transform="translate(266,26)"/>
<path d="M0 0 C0.66 0 1.32 0 2 0 C2 0.66 2 1.32 2 2 C2.66 2 3.32 2 4 2 C6.875 8.625 6.875 8.625 8 12 C8.66 12 9.32 12 10 12 C10.33 10.35 10.66 8.7 11 7 C12.32 6.67 13.64 6.34 15 6 C13.35 9.3 11.7 12.6 10 16 C9.34 16 8.68 16 8 16 C6.66141476 13.71125827 5.32898986 11.41930344 4 9.125 C3.6184375 8.47402344 3.236875 7.82304688 2.84375 7.15234375 C0 2.2265625 0 2.2265625 0 0 Z " fill="#3DA3C5" transform="translate(36,26)"/>
<path d="M0 0 C3.2910841 3.60957611 4.54663921 6.12637153 5 11 C2.36 11 -0.28 11 -3 11 C-2.32829194 7.1936543 -1.27253436 3.64793184 0 0 Z " fill="#78797C" transform="translate(222,30)"/>
<path d="M0 0 C0.33 0.66 0.66 1.32 1 2 C5.29 2 9.58 2 14 2 C14.66 3.98 15.32 5.96 16 8 C14.5 6.625 14.5 6.625 13 5 C13 4.34 13 3.68 13 3 C7.06 3.495 7.06 3.495 1 4 C0.67 5.98 0.34 7.96 0 10 C-0.99 10 -1.98 10 -3 10 C-2.49287967 6.28111761 -1.88391785 3.26545761 0 0 Z " fill="#A7A8AB" transform="translate(215,41)"/>
<path d="M0 0 C0.99 0.99 1.98 1.98 3 3 C-1.29 2.67 -5.58 2.34 -10 2 C-10 2.66 -10 3.32 -10 4 C-10.99 4.33 -11.98 4.66 -13 5 C-13.66 4.34 -14.32 3.68 -15 3 C-10.51424062 -0.58860751 -5.53376174 -0.95668423 0 0 Z " fill="#BDBFC4" transform="translate(170,26)"/>
<path d="M0 0 C0.33 0.66 0.66 1.32 1 2 C1.68707031 1.9278125 2.37414062 1.855625 3.08203125 1.78125 C4.43361328 1.64203125 4.43361328 1.64203125 5.8125 1.5 C6.70582031 1.4071875 7.59914062 1.314375 8.51953125 1.21875 C11 1 11 1 14 1 C16.49977543 4.33303391 17 5.73303602 17 10 C16.34 10 15.68 10 15 10 C14.34 7.69 13.68 5.38 13 3 C8.71 3 4.42 3 0 3 C0 2.01 0 1.02 0 0 Z " fill="#E5E6E9" transform="translate(216,40)"/>
<path d="M0 0 C0.99 0.33 1.98 0.66 3 1 C3.33 2.65 3.66 4.3 4 6 C3.34 5.67 2.68 5.34 2 5 C1.67 10.61 1.34 16.22 1 22 C0.67 22 0.34 22 0 22 C0 14.74 0 7.48 0 0 Z " fill="#D6D7DB" transform="translate(245,27)"/>
<path d="M0 0 C2.31 0 4.62 0 7 0 C7 2.97 7 5.94 7 9 C5.68 9.33 4.36 9.66 3 10 C3.66 7.36 4.32 4.72 5 2 C3.35 2 1.7 2 0 2 C0 1.34 0 0.68 0 0 Z " fill="#C4C5C9" transform="translate(167,39)"/>
<path d="M0 0 C0.99 0 1.98 0 3 0 C3 7.26 3 14.52 3 22 C2.67 22 2.34 22 2 22 C2 16.06 2 10.12 2 4 C1.34 4 0.68 4 0 4 C0 2.68 0 1.36 0 0 Z " fill="#ACF6FE" transform="translate(54,27)"/>
<path d="M0 0 C0.33 0 0.66 0 1 0 C1 4.95 1 9.9 1 15 C0.67 15 0.34 15 0 15 C-0.33 12.36 -0.66 9.72 -1 7 C-1.99 7.99 -2.98 8.98 -4 10 C-3.52449439 8.51965236 -3.04448784 7.04074979 -2.5625 5.5625 C-2.29566406 4.73878906 -2.02882812 3.91507813 -1.75390625 3.06640625 C-1 1 -1 1 0 0 Z " fill="#35A0C0" transform="translate(53,34)"/>
<path d="M0 0 C0.33 0 0.66 0 1 0 C1 4.95 1 9.9 1 15 C0.67 15 0.34 15 0 15 C-0.33 12.03 -0.66 9.06 -1 6 C-1.99 6.66 -2.98 7.32 -4 8 C-2.87548273 5.0280615 -1.77706209 2.66559313 0 0 Z " fill="#76777B" transform="translate(265,33)"/>
<path d="M0 0 C0.66 0 1.32 0 2 0 C2.66 1.98 3.32 3.96 4 6 C3.01 5.67 2.02 5.34 1 5 C1 8.96 1 12.92 1 17 C0.67 17 0.34 17 0 17 C0 11.39 0 5.78 0 0 Z " fill="#717275" transform="translate(247,33)"/>
<path d="M0 0 C1.485 0.99 1.485 0.99 3 2 C2.84660156 2.55171875 2.69320312 3.1034375 2.53515625 3.671875 C1.95329729 6.20317383 1.67564555 8.66441972 1.4375 11.25 C1.35371094 12.14203125 1.26992188 13.0340625 1.18359375 13.953125 C1.12300781 14.62859375 1.06242187 15.3040625 1 16 C0.67 16 0.34 16 0 16 C0 10.72 0 5.44 0 0 Z " fill="#39A3C1" transform="translate(36,34)"/>
<path d="M0 0 C0.66 0 1.32 0 2 0 C3.25 6.625 3.25 6.625 1 10 C0.01 10 -0.98 10 -2 10 C-1.67 9.01 -1.34 8.02 -1 7 C-0.34 7 0.32 7 1 7 C0.67 4.69 0.34 2.38 0 0 Z " fill="#CCCBD3" transform="translate(199,28)"/>
<path d="M0 0 C1.45792884 -0.05399736 2.91642712 -0.09279177 4.375 -0.125 C5.18710938 -0.14820312 5.99921875 -0.17140625 6.8359375 -0.1953125 C9 0 9 0 11 2 C10.34 2.66 9.68 3.32 9 4 C8.67 3.67 8.34 3.34 8 3 C6.845 2.855625 5.69 2.71125 4.5 2.5625 C3.345 2.376875 2.19 2.19125 1 2 C0.67 1.34 0.34 0.68 0 0 Z " fill="#BABCC1" transform="translate(189,26)"/>
<path d="M0 0 C0.66 0 1.32 0 2 0 C3.02611949 1.65071396 4.02308143 3.31970006 5 5 C6.58245275 6.75149165 6.58245275 6.75149165 8 8 C2.25 6.375 2.25 6.375 0 3 C0 2.01 0 1.02 0 0 Z " fill="#CACBCF" transform="translate(154,42)"/>
<path d="M0 0 C3.73884332 2.65654657 5.64978174 4.58110387 7 9 C6.34 9 5.68 9 5 9 C3.7109375 7.5390625 3.7109375 7.5390625 2.375 5.625 C1.92898437 4.99851562 1.48296875 4.37203125 1.0234375 3.7265625 C0 2 0 2 0 0 Z " fill="#C9CBD1" transform="translate(196,41)"/>
<path d="M0 0 C0.99 0.33 1.98 0.66 3 1 C3.33 2.65 3.66 4.3 4 6 C3.01 5.67 2.02 5.34 1 5 C0.67 5.66 0.34 6.32 0 7 C0 4.69 0 2.38 0 0 Z " fill="#A7EBF9" transform="translate(34,27)"/>
<path d="M0 0 C2.62386487 3.06117568 3 3.73173127 3 8 C2.34 8 1.68 8 1 8 C0.34 5.69 -0.32 3.38 -1 1 C-0.67 0.67 -0.34 0.34 0 0 Z " fill="#CCCDD1" transform="translate(230,42)"/>
</svg>
