<?xml version="1.0" encoding="UTF-8"?>
<svg version="1.1" xmlns="http://www.w3.org/2000/svg" width="282" height="70">
<path d="M0 0 C0.74189072 -0.0066568 1.48378143 -0.0133136 2.24815369 -0.02017212 C3.81230191 -0.03027355 5.37649302 -0.03498992 6.94067383 -0.03466797 C9.33551441 -0.03905457 11.72853053 -0.075433 14.12304688 -0.11328125 C15.64452496 -0.1191473 17.16601177 -0.12311811 18.6875 -0.125 C19.76101463 -0.14655655 19.76101463 -0.14655655 20.85621643 -0.16854858 C24.11239394 -0.13853501 25.8243814 -0.0926272 28.23999023 2.19287109 C29.47253447 4.73918159 29.51029216 6.54055662 29.27734375 9.3359375 C30.48390625 9.0575 30.48390625 9.0575 31.71484375 8.7734375 C32.98328125 8.556875 32.98328125 8.556875 34.27734375 8.3359375 C35.27734375 9.3359375 35.27734375 9.3359375 35.39086914 11.74438477 C35.38563232 12.78651123 35.38039551 13.8286377 35.375 14.90234375 C35.37177734 16.02705078 35.36855469 17.15175781 35.36523438 18.31054688 C35.35266602 20.08655273 35.35266602 20.08655273 35.33984375 21.8984375 C35.33533203 23.08630859 35.33082031 24.27417969 35.32617188 25.49804688 C35.3143405 28.44405976 35.29785662 31.38997431 35.27734375 34.3359375 C33.62734375 34.0059375 31.97734375 33.6759375 30.27734375 33.3359375 C30.27734375 26.4059375 30.27734375 19.4759375 30.27734375 12.3359375 C29.61734375 12.3359375 28.95734375 12.3359375 28.27734375 12.3359375 C28.25017551 14.87767727 28.23042406 17.41912165 28.21484375 19.9609375 C28.20227539 21.03021484 28.20227539 21.03021484 28.18945312 22.12109375 C28.17444788 25.39223792 28.24917324 28.21020472 28.96875 31.421875 C29.38563733 35.35855792 27.90142172 37.78922054 26.27734375 41.3359375 C20.31421209 41.36058324 14.3511098 41.3787715 8.38793945 41.39086914 C6.35766077 41.39591028 4.32738573 41.40274307 2.29711914 41.41137695 C-0.61442972 41.42345217 -3.52593075 41.42916784 -6.4375 41.43359375 C-7.80780617 41.44133568 -7.80780617 41.44133568 -9.20579529 41.44923401 C-11.37841052 41.44942918 -13.55092921 41.39805555 -15.72265625 41.3359375 C-16.72265625 40.3359375 -16.72265625 40.3359375 -16.83618164 37.92749023 C-16.83094482 36.88536377 -16.82570801 35.8432373 -16.8203125 34.76953125 C-16.81708984 33.64482422 -16.81386719 32.52011719 -16.81054688 31.36132812 C-16.80216797 30.17732422 -16.79378906 28.99332031 -16.78515625 27.7734375 C-16.78064453 26.58556641 -16.77613281 25.39769531 -16.77148438 24.17382812 C-16.759653 21.22781524 -16.74316912 18.28190069 -16.72265625 15.3359375 C-17.38265625 15.3359375 -18.04265625 15.3359375 -18.72265625 15.3359375 C-19.16015625 12.7734375 -19.16015625 12.7734375 -18.72265625 9.3359375 C-13.51305164 2.40414955 -8.56713976 0.0267181 0 0 Z " fill="#3CA9D2" transform="translate(39.72265625,16.6640625)"/>
<path d="M0 0 C11.88 0 23.76 0 36 0 C36 13.8 36 13.8 35 20 C34.01 20.495 34.01 20.495 33 21 C33 16.71 33 12.42 33 8 C32.34 8 31.68 8 31 8 C31 15.26 31 22.52 31 30 C30.01 30 29.02 30 28 30 C27.67 24.39 27.34 18.78 27 13 C26.030625 14.77375 25.06125 16.5475 24.0625 18.375 C23.24458984 19.87160156 23.24458984 19.87160156 22.41015625 21.3984375 C21.5850241 22.92070346 20.77435609 24.45128783 20 26 C18.68 26 17.36 26 16 26 C15.18247697 24.41925436 14.37118003 22.83528777 13.5625 21.25 C13.11003906 20.36828125 12.65757813 19.4865625 12.19140625 18.578125 C11.16544602 16.35801434 10.48491397 14.38555381 10 12 C9.34 12 8.68 12 8 12 C8 17.94 8 23.88 8 30 C7.34 30 6.68 30 6 30 C6 22.08 6 14.16 6 6 C6.99 6 7.98 6 9 6 C10.33858524 8.28874173 11.67101014 10.58069656 13 12.875 C13.3815625 13.52597656 13.763125 14.17695312 14.15625 14.84765625 C17 19.7734375 17 19.7734375 17 22 C19.63884562 19.59888822 21.36413529 16.99444972 23.1875 13.9375 C23.98220703 12.62072266 23.98220703 12.62072266 24.79296875 11.27734375 C26.15610182 9.13505184 26.15610182 9.13505184 26 7 C25.34 8.32 24.68 9.64 24 11 C23.34 11 22.68 11 22 11 C20.79371992 13.33214148 19.8345262 15.49642139 19 18 C18.34 18 17.68 18 17 18 C14.1605948 14.32547562 13 12.73113419 13 8 C12.34 8 11.68 8 11 8 C10.67 6.68 10.34 5.36 10 4 C7.03 4 4.06 4 1 4 C0.67 2.68 0.34 1.36 0 0 Z " fill="#33ADDA" transform="translate(27,20)"/>
<path d="M0 0 C0.74472061 -0.0066568 1.48944122 -0.0133136 2.25672913 -0.02017212 C3.83283007 -0.03030291 5.40897395 -0.03498901 6.98510742 -0.03466797 C9.39769115 -0.03903991 11.80844349 -0.07534722 14.22070312 -0.11328125 C15.75129582 -0.11914962 17.28189721 -0.12311888 18.8125 -0.125 C19.53445053 -0.13937103 20.25640106 -0.15374207 21.00022888 -0.16854858 C24.27120687 -0.13868735 26.00980015 -0.10100969 28.43969727 2.19287109 C29.66676563 4.73865367 29.70538871 6.54314795 29.47265625 9.3359375 C30.67921875 9.0575 30.67921875 9.0575 31.91015625 8.7734375 C33.17859375 8.556875 33.17859375 8.556875 34.47265625 8.3359375 C35.47265625 9.3359375 35.47265625 9.3359375 35.58618164 11.74438477 C35.58094482 12.78651123 35.57570801 13.8286377 35.5703125 14.90234375 C35.56708984 16.02705078 35.56386719 17.15175781 35.56054688 18.31054688 C35.54797852 20.08655273 35.54797852 20.08655273 35.53515625 21.8984375 C35.53064453 23.08630859 35.52613281 24.27417969 35.52148438 25.49804688 C35.509653 28.44405976 35.49316912 31.38997431 35.47265625 34.3359375 C33.82265625 34.0059375 32.17265625 33.6759375 30.47265625 33.3359375 C30.47265625 26.4059375 30.47265625 19.4759375 30.47265625 12.3359375 C29.81265625 12.3359375 29.15265625 12.3359375 28.47265625 12.3359375 C28.44548801 14.87767727 28.42573656 17.41912165 28.41015625 19.9609375 C28.39758789 21.03021484 28.39758789 21.03021484 28.38476562 22.12109375 C28.36976038 25.39223792 28.44448574 28.21020472 29.1640625 31.421875 C29.58094983 35.35855792 28.09673422 37.78922054 26.47265625 41.3359375 C20.50952459 41.36058324 14.5464223 41.3787715 8.58325195 41.39086914 C6.55297327 41.39591028 4.52269823 41.40274307 2.49243164 41.41137695 C-0.41911722 41.42345217 -3.33061825 41.42916784 -6.2421875 41.43359375 C-7.61249367 41.44133568 -7.61249367 41.44133568 -9.01048279 41.44923401 C-11.18309802 41.44942918 -13.35561671 41.39805555 -15.52734375 41.3359375 C-16.52734375 40.3359375 -16.52734375 40.3359375 -16.64086914 37.92749023 C-16.63563232 36.88536377 -16.63039551 35.8432373 -16.625 34.76953125 C-16.62177734 33.64482422 -16.61855469 32.52011719 -16.61523438 31.36132812 C-16.60685547 30.17732422 -16.59847656 28.99332031 -16.58984375 27.7734375 C-16.58533203 26.58556641 -16.58082031 25.39769531 -16.57617188 24.17382812 C-16.5643405 21.22781524 -16.54785662 18.28190069 -16.52734375 15.3359375 C-17.18734375 15.3359375 -17.84734375 15.3359375 -18.52734375 15.3359375 C-18.77734375 12.5234375 -18.77734375 12.5234375 -18.52734375 9.3359375 C-17.20734375 8.3459375 -15.88734375 7.3559375 -14.52734375 6.3359375 C-14.52734375 17.2259375 -14.52734375 28.1159375 -14.52734375 39.3359375 C-1.32734375 39.3359375 11.87265625 39.3359375 25.47265625 39.3359375 C25.47265625 27.1259375 25.47265625 14.9159375 25.47265625 2.3359375 C13.92265625 2.3359375 2.37265625 2.3359375 -9.52734375 2.3359375 C-6.67142155 -0.5199847 -3.82598591 0.01176187 0 0 Z " fill="#407892" transform="translate(39.52734375,16.6640625)"/>
<path d="M0 0 C4.03441111 1.3448037 5.12667247 3.95309903 7.1875 7.4375 C7.55552734 8.03626953 7.92355469 8.63503906 8.30273438 9.25195312 C11 13.72070675 11 13.72070675 11 16 C11.66 16 12.32 16 13 16 C13.268125 15.29875 13.53625 14.5975 13.8125 13.875 C15.74258892 9.20215314 17.81280594 4.94604978 21 1 C22.32 1.33 23.64 1.66 25 2 C25 9.92 25 17.84 25 26 C23.68 26.33 22.36 26.66 21 27 C20.67 22.38 20.34 17.76 20 13 C17.03 17.95 17.03 17.95 14 23 C9 22 9 22 7.41796875 20.15234375 C6.27864583 18.1015625 5.13932292 16.05078125 4 14 C3.67 17.96 3.34 21.92 3 26 C1.68 26.33 0.36 26.66 -1 27 C-3.53309722 24.46690278 -2.18555171 17.47005092 -2.1875 14.0625 C-2.19974609 12.93908203 -2.21199219 11.81566406 -2.22460938 10.65820312 C-2.22654297 9.58634766 -2.22847656 8.51449219 -2.23046875 7.41015625 C-2.23457764 6.42152588 -2.23868652 5.43289551 -2.24291992 4.41430664 C-2 2 -2 2 0 0 Z " fill="#AFB0B4" transform="translate(245,24)"/>
<path d="M0 0 C1.16015625 0.11794922 1.16015625 0.11794922 2.34375 0.23828125 C4.5 0.6875 4.5 0.6875 7.5 2.6875 C7.17 4.0075 6.84 5.3275 6.5 6.6875 C6.005 6.5225 5.51 6.3575 5 6.1875 C1.36032798 5.4595656 -1.77676355 5.45110404 -5.5 5.6875 C-7.67476401 7.23088091 -8.31832637 8.32415273 -9.5 10.6875 C-9.53831515 14.72591705 -9.41798542 18.47575924 -6.9375 21.75 C-3.3552808 23.12777661 -0.32600906 22.87880045 3.5 22.6875 C3.23323796 20.70258358 3.23323796 20.70258358 2.5 18.6875 C1.51 18.3575 0.52 18.0275 -0.5 17.6875 C-0.5 16.0375 -0.5 14.3875 -0.5 12.6875 C6.25 12.5625 6.25 12.5625 8.5 13.6875 C8.78331572 17.39578802 8.91494109 20.98578868 8.5 24.6875 C6.21061135 27.27229364 4.69609487 27.54258435 1.33984375 27.94921875 C-3.42252973 28.17978441 -6.71532357 27.82337476 -10.5 24.6875 C-14.28715237 21.11074499 -15.25375028 17.94798372 -15.59765625 12.8984375 C-15.38924144 8.17992624 -13.36828566 5.49066423 -10 2.375 C-6.45924245 -0.01501135 -4.14554588 -0.46291929 0 0 Z " fill="#919399" transform="translate(166.5,24.3125)"/>
<path d="M0 0 C5.58697959 0.03995456 5.58697959 0.03995456 8.19140625 1.6015625 C10.36088475 4.01209417 11.25 5.88547677 11.25 9.125 C10.25 11.4375 10.25 11.4375 8.625 12.9375 C6.97351136 14.39036647 6.97351136 14.39036647 7.3125 16.8125 C8.42798809 19.93586666 10.0630188 21.96832768 12.25 24.4375 C11.92 25.0975 11.59 25.7575 11.25 26.4375 C7.7128562 25.87617066 6.25738321 24.74192253 4 22 C3.47921875 21.38253906 2.9584375 20.76507813 2.421875 20.12890625 C1.25 18.4375 1.25 18.4375 1.25 16.4375 C-1.87606964 18.04230784 -1.87606964 18.04230784 -2.26171875 20.3828125 C-2.31972656 21.10210937 -2.37773437 21.82140625 -2.4375 22.5625 C-2.5921875 24.480625 -2.5921875 24.480625 -2.75 26.4375 C-4.07 26.1075 -5.39 25.7775 -6.75 25.4375 C-6.77886984 21.45834841 -6.79675406 17.47922347 -6.8125 13.5 C-6.82087891 12.36369141 -6.82925781 11.22738281 -6.83789062 10.05664062 C-6.84111328 8.97705078 -6.84433594 7.89746094 -6.84765625 6.78515625 C-6.85289307 5.78492432 -6.85812988 4.78469238 -6.86352539 3.75415039 C-6.64556599 -0.69362764 -3.89191277 0.15662576 0 0 Z M-1.75 4.4375 C-1.75 6.7475 -1.75 9.0575 -1.75 11.4375 C1.16652174 11.60431109 1.16652174 11.60431109 4.25 11.4375 C4.91 10.7775 5.57 10.1175 6.25 9.4375 C5.84471099 6.65512345 5.84471099 6.65512345 4.25 4.4375 C2.25041636 4.39669217 0.24954746 4.39495644 -1.75 4.4375 Z " fill="#C8C9CF" transform="translate(192.75,24.5625)"/>
<path d="M0 0 C2.34423828 0.19970703 2.34423828 0.19970703 5 1 C6.40966797 3.08544922 6.40966797 3.08544922 7.4921875 5.8046875 C7.88664062 6.78050781 8.28109375 7.75632812 8.6875 8.76171875 C9.079375 9.78910156 9.47125 10.81648438 9.875 11.875 C10.29007813 12.89464844 10.70515625 13.91429687 11.1328125 14.96484375 C14.14126074 22.57621779 14.14126074 22.57621779 13 26 C11.125 25.75 11.125 25.75 9 25 C8.7421875 24.34 8.484375 23.68 8.21875 23 C7.8165625 22.34 7.414375 21.68 7 21 C4.35212912 20.29626983 4.35212912 20.29626983 1.375 20.25 C0.37210938 20.19328125 -0.63078125 20.1365625 -1.6640625 20.078125 C-2.82035156 20.03945313 -2.82035156 20.03945313 -4 20 C-4.66 21.98 -5.32 23.96 -6 26 C-7.32 25.67 -8.64 25.34 -10 25 C-7.27377636 16.29928627 -4.43242173 8.01608185 0 0 Z M1 8 C0.34 10.31 -0.32 12.62 -1 15 C0.65 14.67 2.3 14.34 4 14 C3.34 12.02 2.68 10.04 2 8 C1.67 8 1.34 8 1 8 Z " fill="#D7D8DB" transform="translate(221,25)"/>
<path d="M0 0 C0.99 0 1.98 0 3 0 C4.33858524 2.28874173 5.67101014 4.58069656 7 6.875 C7.3815625 7.52597656 7.763125 8.17695312 8.15625 8.84765625 C11 13.7734375 11 13.7734375 11 16 C14.62877026 12.85884574 16.70875237 8.59645492 19.0390625 4.47460938 C19.94724187 2.93382415 20.96695498 1.4600092 22 0 C22.99 0 23.98 0 25 0 C25 7.92 25 15.84 25 24 C24.01 24 23.02 24 22 24 C21.67 18.39 21.34 12.78 21 7 C20.030625 8.77375 19.06125 10.5475 18.0625 12.375 C17.24458984 13.87160156 17.24458984 13.87160156 16.41015625 15.3984375 C15.5850241 16.92070346 14.77435609 18.45128783 14 20 C12.68 20 11.36 20 10 20 C9.18247697 18.41925436 8.37118003 16.83528777 7.5625 15.25 C7.11003906 14.36828125 6.65757813 13.4865625 6.19140625 12.578125 C5.16544602 10.35801434 4.48491397 8.38555381 4 6 C3.34 6 2.68 6 2 6 C2 11.94 2 17.88 2 24 C1.34 24 0.68 24 0 24 C0 16.08 0 8.16 0 0 Z " fill="#92E7F8" transform="translate(33,26)"/>
<path d="M0 0 C3 3 3 3 3.1875 5.6875 C3.0946875 6.8321875 3.0946875 6.8321875 3 8 C4.2065625 7.7215625 4.2065625 7.7215625 5.4375 7.4375 C6.7059375 7.2209375 6.7059375 7.2209375 8 7 C9 8 9 8 9.11352539 10.40844727 C9.10828857 11.45057373 9.10305176 12.4927002 9.09765625 13.56640625 C9.09443359 14.69111328 9.09121094 15.81582031 9.08789062 16.97460938 C9.07951172 18.15861328 9.07113281 19.34261719 9.0625 20.5625 C9.05798828 21.75037109 9.05347656 22.93824219 9.04882812 24.16210938 C9.03699675 27.10812226 9.02051287 30.05403681 9 33 C7.35 32.67 5.7 32.34 4 32 C4 25.07 4 18.14 4 11 C3.34 11 2.68 11 2 11 C1.97283176 13.54173977 1.95308031 16.08318415 1.9375 18.625 C1.92912109 19.33785156 1.92074219 20.05070312 1.91210938 20.78515625 C1.89702606 24.07331872 2.00967965 27.05700239 2.5625 30.3125 C3.11454186 33.7036143 2.27256871 35.85600671 1 39 C0.67 39 0.34 39 0 39 C0 26.13 0 13.26 0 0 Z " fill="#4E626D" transform="translate(66,18)"/>
<path d="M0 0 C4.03441111 1.3448037 5.12667247 3.95309903 7.1875 7.4375 C7.55552734 8.03626953 7.92355469 8.63503906 8.30273438 9.25195312 C11 13.72070675 11 13.72070675 11 16 C11.66 16 12.32 16 13 16 C12.67 16.99 12.34 17.98 12 19 C8.88151977 14.98507591 6.28434027 10.68747722 3.62109375 6.36328125 C2.21640498 3.90628271 2.21640498 3.90628271 0 3 C1.83246572 6.98712321 4.23855775 10.58084504 6.625 14.25 C7.04523438 14.8996875 7.46546875 15.549375 7.8984375 16.21875 C8.93045673 17.81368881 9.96498028 19.40700669 11 21 C14.05108777 18.16731981 16.13263455 15.36318244 18.1875 11.75 C19.09968326 10.15194731 20.03013646 8.56371845 21 7 C21.33 7 21.66 7 22 7 C22 13.27 22 19.54 22 26 C22.66 26.33 23.32 26.66 24 27 C23.01 27 22.02 27 21 27 C20.67 22.38 20.34 17.76 20 13 C17.03 17.95 17.03 17.95 14 23 C9 22 9 22 7.41796875 20.15234375 C6.27864583 18.1015625 5.13932292 16.05078125 4 14 C3.67 17.96 3.34 21.92 3 26 C1.68 26.33 0.36 26.66 -1 27 C-3.53309722 24.46690278 -2.18555171 17.47005092 -2.1875 14.0625 C-2.19974609 12.93908203 -2.21199219 11.81566406 -2.22460938 10.65820312 C-2.22654297 9.58634766 -2.22847656 8.51449219 -2.23046875 7.41015625 C-2.23457764 6.42152588 -2.23868652 5.43289551 -2.24291992 4.41430664 C-2 2 -2 2 0 0 Z " fill="#909195" transform="translate(245,24)"/>
<path d="M0 0 C1.98 0.495 1.98 0.495 4 1 C4 7.93 4 14.86 4 22 C6.97 22 9.94 22 13 22 C13.66 23.32 14.32 24.64 15 26 C12.07345473 26.97551509 10.05345004 27.16478088 7 27.1875 C5.700625 27.20876953 5.700625 27.20876953 4.375 27.23046875 C2 27 2 27 -1 25 C-1.35644531 22.58569336 -1.35644531 22.58569336 -1.328125 19.58984375 C-1.32296875 18.51798828 -1.3178125 17.44613281 -1.3125 16.34179688 C-1.291875 15.21837891 -1.27125 14.09496094 -1.25 12.9375 C-1.24484375 11.81021484 -1.2396875 10.68292969 -1.234375 9.52148438 C-1.1537709 1.1537709 -1.1537709 1.1537709 0 0 Z " fill="#898C93" transform="translate(88,25)"/>
<path d="M0 0 C1.32 0 2.64 0 4 0 C4.33 7.26 4.66 14.52 5 22 C7.31 22 9.62 22 12 22 C12.99 22.33 13.98 22.66 15 23 C15 23.99 15 24.98 15 26 C12.52621876 27.23689062 10.82084683 27.13310087 8.0625 27.125 C7.18722656 27.12757812 6.31195313 27.13015625 5.41015625 27.1328125 C3 27 3 27 0 26 C-0.96958001 23.09125996 -1.12880274 21.21010209 -1.1328125 18.18359375 C-1.13410156 17.25482422 -1.13539062 16.32605469 -1.13671875 15.36914062 C-1.13091797 13.91797852 -1.13091797 13.91797852 -1.125 12.4375 C-1.12886719 11.46619141 -1.13273437 10.49488281 -1.13671875 9.49414062 C-1.13542969 8.56666016 -1.13414063 7.63917969 -1.1328125 6.68359375 C-1.13168457 5.83337646 -1.13055664 4.98315918 -1.12939453 4.10717773 C-1 2 -1 2 0 0 Z " fill="#6E7077" transform="translate(112,25)"/>
<path d="M0 0 C6.75 -0.125 6.75 -0.125 9 1 C9.28331572 4.70828802 9.41494109 8.29828868 9 12 C6.71061135 14.58479364 5.19609487 14.85508435 1.83984375 15.26171875 C-2.91128745 15.49174013 -6.18462617 15.09999124 -10 12 C-10.33 11.34 -10.66 10.68 -11 10 C-10.45859375 10.34804688 -9.9171875 10.69609375 -9.359375 11.0546875 C-6.28046958 12.28828868 -4.46666674 11.81428573 -1.25 11.125 C0.22726563 10.81949219 0.22726563 10.81949219 1.734375 10.5078125 C2.48203125 10.34023438 3.2296875 10.17265625 4 10 C3.73323796 8.01508358 3.73323796 8.01508358 3 6 C2.01 5.67 1.02 5.34 0 5 C0 3.35 0 1.7 0 0 Z " fill="#8F9094" transform="translate(166,37)"/>
<path d="M0 0 C1.98 0.495 1.98 0.495 4 1 C4 8.92 4 16.84 4 25 C2.68 25.33 1.36 25.66 0 26 C-1.24084307 23.51831386 -1.12933103 21.83573801 -1.1328125 19.0625 C-1.13410156 18.08539063 -1.13539063 17.10828125 -1.13671875 16.1015625 C-1.13285156 15.07804687 -1.12898437 14.05453125 -1.125 13 C-1.12886719 11.97648437 -1.13273438 10.95296875 -1.13671875 9.8984375 C-1.13542969 8.92132813 -1.13414062 7.94421875 -1.1328125 6.9375 C-1.13168457 6.03902344 -1.13055664 5.14054687 -1.12939453 4.21484375 C-1 2 -1 2 0 0 Z " fill="#93959B" transform="translate(137,25)"/>
<path d="M0 0 C2.0625 1.6875 2.0625 1.6875 4 4 C3.9375 6.5625 3.9375 6.5625 3 9 C2.46375 9.495 1.9275 9.99 1.375 10.5 C-0.27648864 11.95286647 -0.27648864 11.95286647 0.0625 14.375 C1.17798809 17.49836666 2.8130188 19.53082768 5 22 C4.67 22.66 4.34 23.32 4 24 C0.40094092 23.44449305 -0.99909799 22.25112752 -3.25 19.4375 C-4.03117188 18.47650391 -4.03117188 18.47650391 -4.828125 17.49609375 C-5.21484375 17.00238281 -5.6015625 16.50867188 -6 16 C-5.67 15.34 -5.34 14.68 -5 14 C-4.67 14 -4.34 14 -4 14 C-4 13.01 -4 12.02 -4 11 C-5.98 11 -7.96 11 -10 11 C-10 7.7 -10 4.4 -10 1 C-3.375 0.75 -3.375 0.75 0 3 C0.1875 5.625 0.1875 5.625 0 8 C0.33 8 0.66 8 1 8 C1.08226668 4.95613276 0.97608217 2.92824652 0 0 Z M-9 2 C-9 4.31 -9 6.62 -9 9 C-6.08347826 9.16681109 -6.08347826 9.16681109 -3 9 C-2.34 8.34 -1.68 7.68 -1 7 C-1.40528901 4.21762345 -1.40528901 4.21762345 -3 2 C-4.99958364 1.95919217 -7.00045254 1.95745644 -9 2 Z " fill="#888990" transform="translate(200,27)"/>
<path d="M0 0 C0.99 0 1.98 0 3 0 C3 7.92 3 15.84 3 24 C2.01 24 1.02 24 0 24 C-0.33 18.39 -0.66 12.78 -1 7 C-2.175625 8.98 -2.175625 8.98 -3.375 11 C-4.7109375 13.25 -4.7109375 13.25 -6 15 C-6.66 15 -7.32 15 -8 15 C-6.56533934 9.40482341 -3.79953026 4.35060717 0 0 Z " fill="#82D9EF" transform="translate(55,26)"/>
<path d="M0 0 C2.2890625 0.0390625 2.2890625 0.0390625 5 1 C6.41524514 3.52335197 7.41124376 5.68846706 8.375 8.375 C8.64699219 9.06078125 8.91898438 9.7465625 9.19921875 10.453125 C11.14198277 15.57405169 11.14198277 15.57405169 10 19 C8.68 16.36 7.36 13.72 6 11 C6 12.65 6 14.3 6 16 C3.36 16 0.72 16 -2 16 C-1.00956295 11.16371695 -0.04301154 6.52381127 2 2 C1.34 2 0.68 2 0 2 C-0.19335938 2.71027344 -0.38671875 3.42054687 -0.5859375 4.15234375 C-0.84632813 5.07144531 -1.10671875 5.99054687 -1.375 6.9375 C-1.63023437 7.85402344 -1.88546875 8.77054688 -2.1484375 9.71484375 C-3 12 -3 12 -5 13 C-4.39254603 8.14036821 -2.27241033 4.2594482 0 0 Z M1 8 C0.34 10.31 -0.32 12.62 -1 15 C0.65 14.67 2.3 14.34 4 14 C3.34 12.02 2.68 10.04 2 8 C1.67 8 1.34 8 1 8 Z " fill="#8B8C8F" transform="translate(221,25)"/>
<path d="M0 0 C0.99 0 1.98 0 3 0 C3 8.25 3 16.5 3 25 C1.68 25 0.36 25 -1 25 C-1.02886984 21.02084841 -1.04675406 17.04172347 -1.0625 13.0625 C-1.07087891 11.92619141 -1.07925781 10.78988281 -1.08789062 9.61914062 C-1.09111328 8.53955078 -1.09433594 7.45996094 -1.09765625 6.34765625 C-1.10289307 5.34742432 -1.10812988 4.34719238 -1.11352539 3.31665039 C-1 1 -1 1 0 0 Z " fill="#A5A8AC" transform="translate(72,26)"/>
<path d="M0 0 C1.65322266 0.01740234 1.65322266 0.01740234 3.33984375 0.03515625 C4.99693359 0.04869141 4.99693359 0.04869141 6.6875 0.0625 C7.54214844 0.07410156 8.39679688 0.08570312 9.27734375 0.09765625 C9.60734375 0.75765625 9.93734375 1.41765625 10.27734375 2.09765625 C6.31734375 1.76765625 2.35734375 1.43765625 -1.72265625 1.09765625 C-1.39265625 5.71765625 -1.06265625 10.33765625 -0.72265625 15.09765625 C0.59734375 14.76765625 1.91734375 14.43765625 3.27734375 14.09765625 C3.60734375 14.75765625 3.93734375 15.41765625 4.27734375 16.09765625 C3.28734375 16.75765625 2.29734375 17.41765625 1.27734375 18.09765625 C0.69985572 20.06127489 0.69985572 20.06127489 0.58984375 22.22265625 C0.43515625 24.14078125 0.43515625 24.14078125 0.27734375 26.09765625 C-1.04265625 25.76765625 -2.36265625 25.43765625 -3.72265625 25.09765625 C-3.75152609 21.11850466 -3.76941031 17.13937972 -3.78515625 13.16015625 C-3.79353516 12.02384766 -3.80191406 10.88753906 -3.81054688 9.71679688 C-3.81376953 8.63720703 -3.81699219 7.55761719 -3.8203125 6.4453125 C-3.82554932 5.44508057 -3.83078613 4.44484863 -3.83618164 3.41430664 C-3.67105015 0.04455888 -3.40393718 0.12209244 0 0 Z " fill="#808188" transform="translate(189.72265625,24.90234375)"/>
<path d="M0 0 C0.66 0 1.32 0 2 0 C2 7.26 2 14.52 2 22 C5.63 22 9.26 22 13 22 C13 22.66 13 23.32 13 24 C8.71 24 4.42 24 0 24 C0 16.08 0 8.16 0 0 Z " fill="#C2C5CA" transform="translate(113,26)"/>
<path d="M0 0 C0.33 0 0.66 0 1 0 C1 1.65 1 3.3 1 5 C5.29 5 9.58 5 14 5 C14.66 6.32 15.32 7.64 16 9 C15.67 9.99 15.34 10.98 15 12 C14.78601563 11.35546875 14.57203125 10.7109375 14.3515625 10.046875 C13.1526477 7.72160885 13.1526477 7.72160885 10.3984375 7.390625 C9.40070313 7.34421875 8.40296875 7.2978125 7.375 7.25 C5.87066406 7.16492187 5.87066406 7.16492187 4.3359375 7.078125 C3.56507813 7.05234375 2.79421875 7.0265625 2 7 C1.34 8.98 0.68 10.96 0 13 C-1.32 12.67 -2.64 12.34 -4 12 C-2.68 8.04 -1.36 4.08 0 0 Z " fill="#868689" transform="translate(215,38)"/>
<path d="M0 0 C4.53308656 2.26654328 5.32483908 3.68860281 7.75 8 C8.67039063 9.60875 8.67039063 9.60875 9.609375 11.25 C11 14 11 14 11 16 C11.66 16 12.32 16 13 16 C12.67 16.99 12.34 17.98 12 19 C7.56227112 14.87098269 5.02429393 10.22378042 2 5 C1.67 10.61 1.34 16.22 1 22 C0.67 22 0.34 22 0 22 C0 14.74 0 7.48 0 0 Z " fill="#C9CACE" transform="translate(245,27)"/>
<path d="M0 0 C0.66 0 1.32 0 2 0 C2 0.66 2 1.32 2 2 C2.66 2 3.32 2 4 2 C6.875 8.625 6.875 8.625 8 12 C8.66 12 9.32 12 10 12 C10.12375 11.401875 10.2475 10.80375 10.375 10.1875 C11 8 11 8 13 5 C13.66 5 14.32 5 15 5 C15.66 3.35 16.32 1.7 17 0 C17.33 0.99 17.66 1.98 18 3 C16.81305055 5.35338373 15.60140039 7.47932731 14.1875 9.6875 C13.81818359 10.29400391 13.44886719 10.90050781 13.06835938 11.52539062 C12.10813755 13.05795292 11.05986799 14.53458095 10 16 C9.34 16 8.68 16 8 16 C6.66141476 13.71125827 5.32898986 11.41930344 4 9.125 C3.6184375 8.47402344 3.236875 7.82304688 2.84375 7.15234375 C0 2.2265625 0 2.2265625 0 0 Z " fill="#3DA4C4" transform="translate(36,26)"/>
<path d="M0 0 C4.03441111 1.3448037 5.12667247 3.95309903 7.1875 7.4375 C7.55552734 8.03626953 7.92355469 8.63503906 8.30273438 9.25195312 C11 13.72070675 11 13.72070675 11 16 C11.66 16 12.32 16 13 16 C12.67 16.99 12.34 17.98 12 19 C8.88369695 15.00011102 6.33712011 10.69852124 3.71875 6.36328125 C2.15204525 3.72777164 2.15204525 3.72777164 -1 3 C-1 10.59 -1 18.18 -1 26 C-1.33 26 -1.66 26 -2 26 C-2.05785647 22.04172765 -2.09354717 18.0835633 -2.125 14.125 C-2.14175781 12.99707031 -2.15851563 11.86914062 -2.17578125 10.70703125 C-2.18222656 9.63066406 -2.18867188 8.55429687 -2.1953125 7.4453125 C-2.20578613 6.45031738 -2.21625977 5.45532227 -2.22705078 4.43017578 C-2 2 -2 2 0 0 Z " fill="#76777A" transform="translate(245,24)"/>
<path d="M0 0 C0.33 0 0.66 0 1 0 C1 5.94 1 11.88 1 18 C1.99 18 2.98 18 4 18 C4.33 17.34 4.66 16.68 5 16 C5 16.99 5 17.98 5 19 C4.01 19 3.02 19 2 19 C2 19.66 2 20.32 2 21 C2.66 21.33 3.32 21.66 4 22 C1.69 22 -0.62 22 -3 22 C-2.67 20.35 -2.34 18.7 -2 17 C-1.34 17 -0.68 17 0 17 C-0.08378906 15.85660156 -0.16757812 14.71320312 -0.25390625 13.53515625 C-0.35704794 12.04428998 -0.45989747 10.55340347 -0.5625 9.0625 C-0.61857422 8.30775391 -0.67464844 7.55300781 -0.73242188 6.77539062 C-0.86176157 4.85254042 -0.93516912 2.92610452 -1 1 C-0.67 0.67 -0.34 0.34 0 0 Z " fill="#44AED4" transform="translate(54,32)"/>
<path d="M0 0 C0.33 0 0.66 0 1 0 C1 10.89 1 21.78 1 33 C0.67 33 0.34 33 0 33 C0 24.75 0 16.5 0 8 C-0.66 8 -1.32 8 -2 8 C-2.125 5.125 -2.125 5.125 -2 2 C-1.34 1.34 -0.68 0.68 0 0 Z " fill="#264D68" transform="translate(23,24)"/>
<path d="M0 0 C1.16015625 -0.03867187 1.16015625 -0.03867187 2.34375 -0.078125 C4.5 0.25 4.5 0.25 7.5 3.25 C2.55 3.25 -2.4 3.25 -7.5 3.25 C-8.16 4.57 -8.82 5.89 -9.5 7.25 C-9.83 6.26 -10.16 5.27 -10.5 4.25 C-7.34052546 0.78962313 -4.60708074 0.09214161 0 0 Z " fill="#C6C8CE" transform="translate(165.5,25.75)"/>
<path d="M0 0 C0.33 0 0.66 0 1 0 C2.20577428 4.94367454 1.6290678 8.20862412 0 13 C-1.32 12.67 -2.64 12.34 -4 12 C-2.68 8.04 -1.36 4.08 0 0 Z " fill="#A2A3A8" transform="translate(215,38)"/>
<path d="M0 0 C2.31 0 4.62 0 7 0 C7 0.33 7 0.66 7 1 C5.02 1 3.04 1 1 1 C1 1.99 1 2.98 1 4 C2.65 4 4.3 4 6 4 C6 5.98 6 7.96 6 10 C4.68 10.33 3.36 10.66 2 11 C2.66 10.67 3.32 10.34 4 10 C3.73323796 8.01508358 3.73323796 8.01508358 3 6 C2.01 5.67 1.02 5.34 0 5 C0 3.35 0 1.7 0 0 Z " fill="#6E6F74" transform="translate(166,37)"/>
<path d="M0 0 C1.98 0 3.96 0 6 0 C6 2.97 6 5.94 6 9 C4.68 9.33 3.36 9.66 2 10 C2.66 7.36 3.32 4.72 4 2 C2.68 2 1.36 2 0 2 C0 1.34 0 0.68 0 0 Z " fill="#C6C7CC" transform="translate(168,39)"/>
<path d="M0 0 C0.99 0 1.98 0 3 0 C3 7.26 3 14.52 3 22 C2.67 22 2.34 22 2 22 C2 16.06 2 10.12 2 4 C1.34 4 0.68 4 0 4 C0 2.68 0 1.36 0 0 Z " fill="#A9F6FE" transform="translate(54,27)"/>
<path d="M0 0 C0.99 0.33 1.98 0.66 3 1 C3 1.99 3 2.98 3 4 C2.34 4 1.68 4 1 4 C1 9.94 1 15.88 1 22 C0.67 22 0.34 22 0 22 C0 14.74 0 7.48 0 0 Z " fill="#D8D9DD" transform="translate(245,27)"/>
<path d="M0 0 C0.33 0.66 0.66 1.32 1 2 C1.66 2 2.32 2 3 2 C3.66 3.98 4.32 5.96 5 8 C3.68 8.33 2.36 8.66 1 9 C0.63877119 7.68942607 0.28619689 6.37646376 -0.0625 5.0625 C-0.35833984 3.96615234 -0.35833984 3.96615234 -0.66015625 2.84765625 C-0.77230469 2.23792969 -0.88445312 1.62820312 -1 1 C-0.67 0.67 -0.34 0.34 0 0 Z " fill="#AAABB0" transform="translate(230,42)"/>
<path d="M0 0 C3.21746321 2.65790439 3.08233008 3.41165038 4 8 C0.04 8 -3.92 8 -8 8 C-7.67 7.01 -7.34 6.02 -7 5 C-7 5.66 -7 6.32 -7 7 C-4.36 7 -1.72 7 1 7 C0.67 4.69 0.34 2.38 0 0 Z " fill="#C0C1C5" transform="translate(226,34)"/>
<path d="M0 0 C0.66 0 1.32 0 2 0 C2.33 2.64 2.66 5.28 3 8 C2.34 8 1.68 8 1 8 C1 10.31 1 12.62 1 15 C0.67 15 0.34 15 0 15 C0 10.05 0 5.1 0 0 Z " fill="#303D44" transform="translate(67,21)"/>
<path d="M0 0 C1.485 0.99 1.485 0.99 3 2 C2.84660156 2.55171875 2.69320312 3.1034375 2.53515625 3.671875 C1.95329729 6.20317383 1.67564555 8.66441972 1.4375 11.25 C1.35371094 12.14203125 1.26992188 13.0340625 1.18359375 13.953125 C1.12300781 14.62859375 1.06242187 15.3040625 1 16 C0.67 16 0.34 16 0 16 C0 10.72 0 5.44 0 0 Z " fill="#39A2C1" transform="translate(36,34)"/>
<path d="M0 0 C0.33 0 0.66 0 1 0 C1 4.95 1 9.9 1 15 C0.67 15 0.34 15 0 15 C-0.144375 13.7625 -0.28875 12.525 -0.4375 11.25 C-0.71308181 8.95213402 -1.02664476 6.91037671 -1.6875 4.6875 C-2 3 -2 3 0 0 Z " fill="#359FBE" transform="translate(53,34)"/>
<path d="M0 0 C1.485 0.99 1.485 0.99 3 2 C2.67 2.99 2.34 3.98 2 5 C1.77674186 7.05893621 1.59294241 9.12233653 1.4375 11.1875 C1.35371094 12.27417969 1.26992187 13.36085938 1.18359375 14.48046875 C1.12300781 15.31191406 1.06242188 16.14335938 1 17 C0.67 17 0.34 17 0 17 C0 11.39 0 5.78 0 0 Z " fill="#696B6E" transform="translate(247,33)"/>
<path d="M0 0 C0.66 0.33 1.32 0.66 2 1 C2.625 4.0625 2.625 4.0625 3 7 C0.36 7 -2.28 7 -5 7 C-4.67 6.01 -4.34 5.02 -4 4 C-4 4.66 -4 5.32 -4 6 C-2.68 5.67 -1.36 5.34 0 5 C0 3.35 0 1.7 0 0 Z " fill="#818286" transform="translate(224,34)"/>
<path d="M0 0 C0.33 0 0.66 0 1 0 C1 2.64 1 5.28 1 8 C0.01 8 -0.98 8 -2 8 C-2.125 5.125 -2.125 5.125 -2 2 C-1.34 1.34 -0.68 0.68 0 0 Z " fill="#305664" transform="translate(23,24)"/>
<path d="M0 0 C0.99 0.33 1.98 0.66 3 1 C3.33 2.65 3.66 4.3 4 6 C3.01 5.67 2.02 5.34 1 5 C0.67 5.66 0.34 6.32 0 7 C0 4.69 0 2.38 0 0 Z " fill="#A6EBF8" transform="translate(34,27)"/>
<path d="M0 0 C0.66 0 1.32 0 2 0 C3.25541557 3.76624671 2.37061958 5.37188934 1 9 C0.67 9 0.34 9 0 9 C0 6.03 0 3.06 0 0 Z " fill="#4B657A" transform="translate(66,48)"/>
<path d="M0 0 C1.43088528 2.86177057 0.59991697 4.93375773 0 8 C-0.99 7.67 -1.98 7.34 -3 7 C-1.125 1.125 -1.125 1.125 0 0 Z " fill="#A0A1A4" transform="translate(264,28)"/>
</svg>
